<?xml version="1.0" encoding="UTF-8"?>
<!DOCTYPE svg PUBLIC "-//W3C//DTD SVG 1.0//EN" "http://www.w3.org/TR/2001/REC-SVG-20010904/DTD/svg10.dtd">
<!-- Creator: CorelDRAW 2020 (64-Bit Versión de evaluación) -->
<svg xmlns="http://www.w3.org/2000/svg" xml:space="preserve" width="3cm" height="3cm" version="1.0" style="shape-rendering:geometricPrecision; text-rendering:geometricPrecision; image-rendering:optimizeQuality; fill-rule:evenodd; clip-rule:evenodd"
viewBox="0 0 3000 3000"
 xmlns:xlink="http://www.w3.org/1999/xlink"
 xmlns:xodm="http://www.corel.com/coreldraw/odm/2003">
 <defs>
  <style type="text/css">
   <![CDATA[
    .fil0 {fill:#90C127}
   ]]>
  </style>
   <clipPath id="id0">
    <rect x="-55564.71" y="-9941.82" width="50724.76" height="28532.68"/>
   </clipPath>
 </defs>
 <g id="Capa_x0020_1">
  <metadata id="CorelCorpID_0Corel-Layer"/>
  <g style="clip-path:url(#id0)">
   <image id="fraquezas-pokemon-go-2023-lista-com-todas-as-vantagens-e-desvantagens.jpg" x="-55564.71" y="-9941.82" width="50724.75" height="28532.67" xlink:href="bug_Images\bug_ImgID1.png"/>
  </g>
  <path id="bug.svg" class="fil0" d="M1981.45 57.37c2.11,-3.02 6.27,-3.75 9.29,-1.64l206.27 144.44c3.02,2.11 3.75,6.27 1.64,9.29l-287.1 410.02c139.58,44.59 234.67,92.69 234.67,92.69 0,0 -232.44,399.82 -626.67,399.82 -394.23,0 -674.37,-372.64 -674.37,-372.64 0,0 99.33,-63.39 246.58,-117.75l-314.92 -375.3c-2.36,-2.82 -2,-7.03 0.82,-9.39l192.91 -161.87c2.82,-2.37 7.03,-2 9.39,0.82l398.74 475.19c34.14,-3.86 68.92,-6.02 104.02,-6.02 50.45,0 100.83,3.84 150.02,10.34l348.71 -498zm77.99 1073.55c105.21,-75.14 264.4,-271.25 264.4,-271.25 0,0 406.63,322.24 406.63,1005.49 0,683.25 -703,1094.47 -703,1094.47 0,0 -335.88,-339.2 -418.34,-769.19 -82.45,-429.99 121.98,-907.44 121.98,-907.44 0,0 223.13,-76.94 328.33,-152.08l0 0zm-1133.02 0c-105.21,-75.14 -264.4,-271.25 -264.4,-271.25 0,0 -406.63,322.24 -406.63,1005.49 0,683.25 703,1094.47 703,1094.47 0,0 335.88,-339.2 418.34,-769.19 82.45,-429.99 -121.98,-907.44 -121.98,-907.44 0,0 -223.13,-76.94 -328.33,-152.08l0 0z"/>
 </g>
</svg>
