<?xml version="1.0" encoding="UTF-8"?>
<!DOCTYPE svg PUBLIC "-//W3C//DTD SVG 1.0//EN" "http://www.w3.org/TR/2001/REC-SVG-20010904/DTD/svg10.dtd">
<!-- Creator: CorelDRAW 2020 (64-Bit Versión de evaluación) -->
<svg xmlns="http://www.w3.org/2000/svg" xml:space="preserve" width="3cm" height="3cm" version="1.0" style="shape-rendering:geometricPrecision; text-rendering:geometricPrecision; image-rendering:optimizeQuality; fill-rule:evenodd; clip-rule:evenodd"
viewBox="0 0 3000 3000"
 xmlns:xlink="http://www.w3.org/1999/xlink"
 xmlns:xodm="http://www.corel.com/coreldraw/odm/2003">
 <defs>
  <style type="text/css">
   <![CDATA[
    .str0 {stroke:white;stroke-width:20;stroke-miterlimit:22.9256}
    .fil0 {fill:#5D5167}
    .fil1 {fill:white}
   ]]>
  </style>
   <clipPath id="id0">
    <rect x="-55893.52" y="-10280.48" width="50724.76" height="28532.68"/>
   </clipPath>
 </defs>
 <g id="Capa_x0020_1">
  <metadata id="CorelCorpID_0Corel-Layer"/>
  <g style="clip-path:url(#id0)">
   <image id="fraquezas-pokemon-go-2023-lista-com-todas-as-vantagens-e-desvantagens.jpg" x="-55893.52" y="-10280.48" width="50724.75" height="28532.67" xlink:href="dark_Images\dark_ImgID1.png"/>
  </g>
  <path id="dark.svg" class="fil0" d="M1488.74 2852.54c754.01,0 1365.26,-611.25 1365.26,-1365.26 0,-754.01 -611.25,-1365.26 -1365.26,-1365.26 -754.01,0 -1365.26,611.25 -1365.26,1365.26 0,754.01 611.25,1365.26 1365.26,1365.26z"/>
  <path id="dark.svg_0" class="fil1 str0" d="M1348.6 2537.09c51.88,7.94 105.01,12.06 159.1,12.06 575.98,0 1042.9,-466.93 1042.9,-1042.9 0,-575.99 -466.92,-1042.91 -1042.9,-1042.91 -38.64,0 -76.8,2.1 -114.35,6.2 285.72,216.46 474.63,591.43 474.63,1017.74 0,448.19 -208.8,839.63 -519.38,1049.81z"/>
 </g>
</svg>
