<?xml version="1.0" encoding="UTF-8"?>
<!DOCTYPE svg PUBLIC "-//W3C//DTD SVG 1.0//EN" "http://www.w3.org/TR/2001/REC-SVG-20010904/DTD/svg10.dtd">
<!-- Creator: CorelDRAW 2020 (64-Bit Versión de evaluación) -->
<svg xmlns="http://www.w3.org/2000/svg" xml:space="preserve" width="3cm" height="3cm" version="1.0" style="shape-rendering:geometricPrecision; text-rendering:geometricPrecision; image-rendering:optimizeQuality; fill-rule:evenodd; clip-rule:evenodd"
viewBox="0 0 3000 3000"
 xmlns:xlink="http://www.w3.org/1999/xlink"
 xmlns:xodm="http://www.corel.com/coreldraw/odm/2003">
 <defs>
  <style type="text/css">
   <![CDATA[
    .str0 {stroke:white;stroke-width:20;stroke-miterlimit:22.9256}
    .fil1 {fill:#5D5167}
    .fil0 {fill:white}
   ]]>
  </style>
   <clipPath id="id0">
    <rect x="-55893.52" y="-10280.48" width="50724.76" height="28532.68"/>
   </clipPath>
 </defs>
 <g id="Capa_x0020_1">
  <metadata id="CorelCorpID_0Corel-Layer"/>
  <path id="dark.svg" class="fil0 str0" d="M1492.93 2902.2c759.45,0 1375.12,-615.67 1375.12,-1375.13 0,-759.45 -615.67,-1375.12 -1375.12,-1375.12 -759.46,0 -1375.13,615.67 -1375.13,1375.12 0,759.46 615.67,1375.13 1375.13,1375.13z"/>
  <g style="clip-path:url(#id0)">
   <image id="fraquezas-pokemon-go-2023-lista-com-todas-as-vantagens-e-desvantagens.jpg" x="-55893.52" y="-10280.48" width="50724.75" height="28532.67" xlink:href="dark1_Images\dark1_ImgID1.png"/>
  </g>
  <path id="dark.svg_0" class="fil1" d="M1492.93 2795.41c700.48,0 1268.33,-567.85 1268.33,-1268.34 0,-700.48 -567.85,-1268.33 -1268.33,-1268.33 -700.49,0 -1268.34,567.85 -1268.34,1268.33 0,700.49 567.85,1268.34 1268.34,1268.34z"/>
  <path id="dark.svg_1" class="fil0 str0" d="M1362.73 2502.36c48.2,7.37 97.56,11.2 147.81,11.2 535.09,0 968.86,-433.78 968.86,-968.86 0,-535.1 -433.77,-968.87 -968.86,-968.87 -35.9,0 -71.35,1.95 -106.23,5.76 265.43,201.09 440.93,549.44 440.93,945.48 0,416.38 -193.98,780.03 -482.51,975.29z"/>
 </g>
</svg>
