<?xml version="1.0" encoding="UTF-8"?>
<!DOCTYPE svg PUBLIC "-//W3C//DTD SVG 1.0//EN" "http://www.w3.org/TR/2001/REC-SVG-20010904/DTD/svg10.dtd">
<!-- Creator: CorelDRAW 2020 (64-Bit Versión de evaluación) -->
<svg xmlns="http://www.w3.org/2000/svg" xml:space="preserve" width="3cm" height="3cm" version="1.0" style="shape-rendering:geometricPrecision; text-rendering:geometricPrecision; image-rendering:optimizeQuality; fill-rule:evenodd; clip-rule:evenodd"
viewBox="0 0 3000 3000"
 xmlns:xlink="http://www.w3.org/1999/xlink"
 xmlns:xodm="http://www.corel.com/coreldraw/odm/2003">
 <defs>
  <style type="text/css">
   <![CDATA[
    .fil0 {fill:#086DC7}
   ]]>
  </style>
   <clipPath id="id0">
    <rect x="-55893.52" y="-10280.48" width="50724.76" height="28532.68"/>
   </clipPath>
 </defs>
 <g id="Capa_x0020_1">
  <metadata id="CorelCorpID_0Corel-Layer"/>
  <g style="clip-path:url(#id0)">
   <image id="fraquezas-pokemon-go-2023-lista-com-todas-as-vantagens-e-desvantagens.jpg" x="-55893.52" y="-10280.48" width="50724.75" height="28532.67" xlink:href="dragon1_Images\dragon1_ImgID1.png"/>
  </g>
  <path id="dragon.svg" class="fil0" d="M1563.71 1463.86c17.74,-10.82 32.78,-33.48 44.92,-58.67 159.71,65.27 271.94,219.51 271.94,399.39 0,238.96 -198.07,432.68 -442.4,432.68 -100.29,0 -192.8,-32.65 -267,-87.66 -24.34,-11.53 -44.37,-22.6 -60.75,-31.66 -25.42,-14.05 -42.09,-23.27 -52.53,-21.83 -30.51,4.21 -21.65,32.28 -13.6,57.78 5.46,17.32 10.56,33.46 2.67,40.12 -8.25,6.97 -34.97,-18.51 -66.2,-48.28 -42.5,-40.53 -93.35,-89.01 -117.33,-74.45 -18.96,11.52 -0.55,42.75 21.98,80.99l1.67 2.83c9.52,16.17 20.55,32.62 30.61,47.64 20.46,30.52 36.94,55.12 28.7,59.28 -9.97,5.03 -79.41,-41.84 -137.93,-106.92 -22.59,-25.11 -44.47,-52.33 -64.8,-77.63l0 0c-44.51,-55.38 -81.58,-101.51 -102.4,-96.05 -25.04,6.57 -6.1,58.22 21.74,107.92 13.01,23.24 28.32,46.91 41.57,67.4l0 0c20.62,31.87 36.26,56.05 30.59,59.03 -7.66,4 -75.03,-61.7 -120.79,-144.49 -27.18,-49.18 -50.01,-103.52 -68.48,-147.51 -20.04,-47.72 -34.97,-83.26 -44.79,-86.84 -34.15,-12.43 -34.15,57.2 -20.46,157.69 1.79,13.1 4.45,26.86 7.73,40.86 132.81,429.73 540.81,742.63 1023.54,742.63 590.46,0 1069.11,-468.15 1069.11,-1045.64 0,-549.65 -433.6,-1000.24 -984.51,-1042.42 0.7,-25.89 14.22,-77.24 14.22,-77.24 0,0 97.25,-235.31 102.39,-285.59 0.34,-3.34 0.74,-6.97 1.18,-10.83 6.06,-54.33 17.33,-155.34 -69.58,-155.34 -46.41,0 -67.99,34.52 -92.67,74.01l0 0c-9.48,15.16 -19.42,31.05 -31.39,46 -86.22,107.67 -231.2,242.13 -313.41,313.76 -173.76,151.4 -344.23,275.84 -443.66,348.41l0 0 -0.01 0.01c-45.22,33 -75.74,55.28 -85.18,64.49 -71.19,69.39 -326.41,529.76 -326.41,529.76 0,0 -82.54,147.7 -53.2,177.66 29.34,29.95 100.08,23.08 100.08,23.08 0,0 950.43,-218.03 1035.52,-235.23 22.91,-4.63 39.08,-7.3 51.5,-9.35 33.71,-5.57 39.76,-6.57 77.82,-29.79zm-671.99 -280.2c-51.01,48.5 -135.63,164.24 -135.63,164.24 0,0 157.25,9.69 243.86,-72.63 86.61,-82.33 66.76,-222.62 66.76,-222.62 0,0 -123.98,82.52 -174.99,131.01z"/>
 </g>
</svg>
