<?xml version="1.0" encoding="UTF-8"?>
<!DOCTYPE svg PUBLIC "-//W3C//DTD SVG 1.0//EN" "http://www.w3.org/TR/2001/REC-SVG-20010904/DTD/svg10.dtd">
<!-- Creator: CorelDRAW 2020 (64-Bit Versión de evaluación) -->
<svg xmlns="http://www.w3.org/2000/svg" xml:space="preserve" width="3cm" height="3cm" version="1.0" style="shape-rendering:geometricPrecision; text-rendering:geometricPrecision; image-rendering:optimizeQuality; fill-rule:evenodd; clip-rule:evenodd"
viewBox="0 0 3000 3000"
 xmlns:xlink="http://www.w3.org/1999/xlink"
 xmlns:xodm="http://www.corel.com/coreldraw/odm/2003">
 <defs>
  <style type="text/css">
   <![CDATA[
    .fil0 {fill:#02C0FB}
    .fil1 {fill:#086DC7}
    .fil2 {fill:#1D8DF1}
    .fil10 {fill:#3E57A0}
    .fil7 {fill:#3EE8DB}
    .fil5 {fill:#3EE9DE}
    .fil4 {fill:#62F7E8}
    .fil6 {fill:#FDA53D}
    .fil11 {fill:#FE3D97}
    .fil9 {fill:#FEC142}
    .fil3 {fill:#FED303}
    .fil8 {fill:#FEF056}
   ]]>
  </style>
 </defs>
 <g id="Capa_x0020_1">
  <metadata id="CorelCorpID_0Corel-Layer"/>
  <path class="fil0" d="M1833.73 487.21c62.84,-18.78 113.7,20.51 132.58,58.73 48.79,98.78 -46.16,126.93 -59.16,69.63 -7.39,-32.57 -4.78,-58.37 -43.04,-59.32 -42.29,-1.04 -33.41,34.14 -69.08,33.24 -30.86,-0.79 -42.83,-35.29 -24.44,-61.22 13.57,-19.13 32.63,-31.94 63.14,-41.06zm-454.36 -329.27l39.67 0c48.81,18.18 90.8,97.23 187.64,113.7 62.88,10.69 96.29,-22.65 208.8,20.24 42.17,16.07 116.34,58.68 149.33,89.91 16.58,20.89 38.62,34.08 56.56,55.86 78.57,95.41 78.31,146.36 138.35,197.68 41.43,35.4 81.51,65.58 123.56,100.14 94.88,77.99 91.08,55.67 157.05,53.52 30.66,-1 55.79,23.35 59.06,51.49 7.88,67.92 -87.7,152.31 -182.34,150.29 -74.39,-1.59 -54.99,-86.09 -106.53,-118.63 -29.8,-18.81 -129.89,-23.11 -172.14,-41.93l-198.09 -58.21c-6.02,-10.44 -28.11,-38.11 -34.12,-44.57 -237.03,-254.81 -493.38,-32.8 -310.25,155.84 57.43,59.15 124.06,77.69 178.38,104.76 10.67,5.31 6.59,3.42 11.17,6.75l-85.16 27.77c-87.49,21.88 -133.33,8.57 -211.23,-10.71 -25.16,189.7 131.83,402.61 213.2,478.34l149.97 154.82c35.18,34.91 129.83,163.38 133.31,165.2 11.74,26.68 29.31,50.07 44.95,77.43 12.99,22.74 26.57,50.34 39.5,77.68 21.57,45.6 48.8,121.67 56.14,177.19 -62.63,37.6 -205.36,208.49 -395.69,82.65 -69.38,-45.87 -61.44,-57.67 -95.22,-88.5 28.41,-76.67 27.75,-121.88 -5.69,-199.63 -23.31,-54.2 -59.89,-114.04 -88.74,-156.63 -34.13,-50.37 -65.69,-97.68 -96.67,-148.4 -22.52,-36.87 -74.47,-113.65 -88.04,-155.09 1.82,-62.71 18.35,-82.57 -3.02,-153.59 -12.79,-42.53 -33.05,-94.71 -89.99,-60.62 -5.21,-5.46 -3.44,-2.76 -8.16,-10.94 -9.33,-16.18 -20.34,-69.84 -23.96,-89.09 -43.6,-232.28 43.3,-353.49 54.19,-409.88 2.82,-14.61 -8.78,-78.33 -7.19,-108.79 2.55,-48.6 33.91,-160.89 67.7,-176.09 73.3,12.49 120.16,5.39 147.08,-56.69 12.12,-27.94 18.94,-63.67 9.11,-94.92 -12.84,-40.86 -28.25,-33.74 -52.94,-57.09l-7.09 -5.33c-3.61,-43.33 -14.14,-66.06 23.11,-88.82 4.99,-3.05 9.78,-5.39 14.43,-7.11z"/>
  <path class="fil1" d="M2038.38 830.21c-11.32,16.09 -5.13,6.51 -36.03,20.38 -32.97,14.8 -58.63,39.67 -69.43,78.46 15.47,28.99 53.23,75.73 75.07,92.25 42.18,31.89 60.05,27.29 108.64,51.36 112.49,55.75 15.93,154.24 -89.74,123.32 -15.37,13.84 -13.5,47.37 -79.1,74.29 -136.31,55.92 -91.01,-100.48 -114.76,-159.15 -19.22,-47.48 -40.54,-59.19 -59.92,-89.81 -21.02,-8.99 -62.87,-25.51 -87.64,-26.53l-85.16 27.77c-0.81,88.94 26.61,148.76 64.88,208.32 35.94,55.92 78.03,103.94 123.22,148.75l105.37 102.34c41.17,40.09 145.44,182.84 154.82,192.06 13.4,28.43 41,65.37 58.51,95.72 19.85,34.39 32.58,62.27 51.02,98.16 22.18,43.15 72.1,173.59 75.14,227.83 32.11,79.38 18.21,261.21 -2.72,347.18 -38.35,157.46 -83.44,184.41 -126.4,267.99 27.53,-7.46 104.48,-63.72 130.04,-82.98 108.16,-81.51 188.42,-162.86 271.08,-272.56 133.19,-176.74 219.29,-399.43 244.58,-624.18 2.85,-25.32 9.7,-72.47 9.7,-99.85 -65.26,17.1 -103.31,35.31 -177.1,4.34 -158.1,-66.35 -103.74,-202.07 -166.19,-249.84 -30.92,-23.65 -92.51,-47.95 -91.85,-116.65 -8.56,-11.74 -5.13,-22.35 -5.05,-39.96 -39.28,-20.36 -58.7,-18.72 -76.45,-59.01 -47.74,-108.37 129.78,-197.14 175.88,-52.54 61.99,-22.15 120.07,11.7 148.68,47.74 20.08,25.32 19.02,39.03 53.75,53.1 22.16,8.97 61.94,8.03 90.36,11.78l-23.32 -73.68c-29.23,-88.35 -77.62,-190.67 -126.93,-267.47l-83.52 -119.01c-78.2,-97.92 -155.06,-171.31 -255.74,-245.27 -51.7,-37.97 -191.17,-128.46 -257.26,-143.07 16.58,20.89 38.62,34.08 56.56,55.86 78.57,95.41 78.31,146.36 138.35,197.68 41.43,35.4 81.51,65.58 123.56,100.14 94.88,77.99 91.08,55.67 157.05,53.52 30.66,-1 55.79,23.35 59.06,51.49 7.88,67.92 -87.7,152.31 -182.34,150.29 -74.39,-1.59 -54.99,-86.09 -106.53,-118.63 -29.8,-18.81 -129.89,-23.11 -172.14,-41.93z"/>
  <path class="fil1" d="M163.95 1378.16c78.3,32.2 99.62,54.47 214.54,94.85 38.46,13.52 78.84,24.61 119.89,34.4 33.22,7.92 108.44,14.77 130.39,25.41 47.61,-3.08 114.57,7.03 169.44,5.33 57.28,-1.77 105.99,-9.34 161.05,-15.51 18.81,-13.63 41.71,-24.98 52.86,-42.23 -30.51,-52.78 1.41,-123.92 23.31,-158.03 18.28,-28.48 14.53,-46.47 -8.67,-65.86 -60.94,-50.91 -106.44,-114.53 -74.23,-208.48 9.35,-27.25 22.45,-47.23 37.58,-64.04 66.95,-74.36 -54.66,-67.79 -46.41,-207.25 7.51,-126.93 121.11,-148.13 134.63,-168.17 18.39,-27.28 -1.37,-51.25 -9.87,-76.14 -20.56,-60.22 -0.65,-112.2 21.06,-154.71l-94.13 -21.47 -78.2 32.61c-118.01,54.72 -185.43,98.13 -286.55,177.14 -67.75,52.93 -121.53,111.45 -177.51,174.24 -37.68,42.26 -114.02,150.41 -141.75,204.69l-39.06 78.2c-38.12,75.75 -108.37,272.95 -108.37,355.02z"/>
  <path class="fil2" d="M931.45 2193.17c5.5,58.12 17.53,109.31 36.02,161.94 19.52,55.61 46.53,95.16 20.91,162.34 -39.84,104.49 -159.92,127.66 -249.24,48.84 -35.58,8.95 -54.57,30.34 -100.85,31.42 15.12,26.06 141.96,106.42 175.82,123.92l99.5 49.74c35.39,17.13 71.24,31.17 110.43,44.13 110.19,36.42 247.72,69.86 370.18,71.28l20.86 0c20.22,-0.06 40.44,-0.02 60.66,0l1.16 0 3.56 0 73.87 -5.32c16.97,-15.48 74.02,-41.93 98.62,-56.69 235.58,-141.32 441.9,-368.37 374.1,-679.63l-0.9 -2.64c-62.63,37.6 -205.36,208.49 -395.69,82.65 -69.38,-45.87 -61.44,-57.67 -95.22,-88.5 -18.13,30.86 -31.24,46.12 -51.05,71.63 -228.92,294.8 -473.01,26.83 -552.74,-15.11z"/>
  <path class="fil2" d="M287.79 2167.26c-2.98,-40.54 25.23,-84.15 44.11,-103.97 25.13,-26.38 51.84,-44.73 96.2,-52.73 105.15,-18.97 169.81,27.85 249,49.02l3.89 -3.55c6.21,-78.18 45.71,-186.29 75.69,-250.15 23.02,-49.03 6.92,-94.18 -39.86,-106.58 -38.93,-10.32 -105.06,-7.51 -147.33,-16.2 -79.83,-12.32 -153.51,-27.32 -226.56,-51.79 -36.89,-12.36 -65.84,-23.48 -100.52,-38.07 -35.92,-15.12 -60.96,-31.55 -94.45,-46.75l0 8.49c0.12,140.68 3.49,198.65 35.13,337.31 20.31,89.01 51.95,163.4 85.8,244.6l18.9 30.37z"/>
  <path class="fil3" d="M2418.79 1117.67c-36.01,9.07 -59.37,31.05 -74.81,53.21 -23.62,33.91 -20.47,52.12 -19.57,98.3 -0.66,68.7 60.93,93 91.85,116.65 62.45,47.77 8.09,183.49 166.19,249.84 73.79,30.97 111.84,12.76 177.1,-4.34 54.53,-26.5 108.6,-87.78 117.25,-169.38l0 -45.97c-0.33,-3.2 -0.73,-6.42 -1.2,-9.67 -6.52,-44.61 -28.74,-86.26 -55.95,-114.61 -24.84,-25.88 -67.63,-55.86 -108.07,-61.41 -28.42,-3.75 -68.2,-2.81 -90.36,-11.78 -34.73,-14.07 -33.67,-27.78 -53.75,-53.1 -28.61,-36.04 -86.69,-69.89 -148.68,-47.74z"/>
  <path class="fil4" d="M628.77 1532.82c-29.39,1.08 -52.24,29.67 -63.81,55.02 -17.71,38.8 -7.88,60.78 4.53,95.26 42.27,8.69 108.4,5.88 147.33,16.2 46.78,12.4 62.88,57.55 39.86,106.58 -29.98,63.86 -69.48,171.97 -75.69,250.15 9.42,45.1 59.53,95.34 98.4,109.12 30.04,10.65 58.92,6.42 85.11,-5.96 32.02,-15.15 40.53,-31.87 63.27,-45.01l8.87 -106.5c10.28,-63.77 26.4,-124.76 48.82,-180.81 13.92,-34.8 59.25,-132.38 76.65,-148.45 -38.23,-2.32 -66.26,-31.7 -79.84,-52.46 -20.59,-31.47 -25.8,-60.16 -23.01,-103.32 -55.06,6.17 -103.77,13.74 -161.05,15.51 -54.87,1.7 -121.83,-8.41 -169.44,-5.33z"/>
  <path class="fil5" d="M1685.47 994.78c24.77,1.02 66.62,17.54 87.64,26.53 68.82,22.28 151.81,67.51 197.16,123 8.31,10.18 14.04,19.44 24.26,29.14 15.17,14.4 15.27,10.57 32.36,22.53 105.67,30.92 202.23,-67.57 89.74,-123.32 -48.59,-24.07 -66.46,-19.47 -108.64,-51.36 -21.84,-16.52 -59.6,-63.26 -75.07,-92.25 -17.73,-16.4 -82.81,-129.34 -92.63,-157.05 -6.02,-10.44 -28.11,-38.11 -34.12,-44.57 -237.03,-254.81 -493.38,-32.8 -310.25,155.84 57.43,59.15 124.06,77.69 178.38,104.76 10.67,5.31 6.59,3.42 11.17,6.75z"/>
  <path class="fil6" d="M2027.05 2145.14c67.8,311.26 -138.52,538.31 -374.1,679.63 -24.6,14.76 -81.65,41.21 -98.62,56.69 165.13,0 350.93,-65.9 492.81,-136.8 20.05,-10.02 45.04,-17.87 57.01,-33.76 42.96,-83.58 88.05,-110.53 126.4,-267.99 20.93,-85.97 34.83,-267.8 2.72,-347.18 -8.12,32.44 -46.52,63.65 -87.09,71.81 -24.32,4.89 -47.45,2.48 -69.65,-4.63 -21.87,-7.01 -37.03,-20.51 -49.48,-17.77z"/>
  <path class="fil7" d="M1012.12 1480.41c30.32,-18.43 66.37,-62.61 87.08,-94.16 25.44,-38.75 40.82,-93.87 63.89,-123.56 -5.21,-5.46 -3.44,-2.76 -8.16,-10.94 -9.33,-16.18 -20.34,-69.84 -23.96,-89.09 -43.6,-232.28 43.3,-353.49 54.19,-409.88 2.82,-14.61 -8.78,-78.33 -7.19,-108.79 2.55,-48.6 33.91,-160.89 67.7,-176.09 -33.08,-33.83 -97.26,-72.91 -156.15,-90.17 -21.71,42.51 -41.62,94.49 -21.06,154.71 8.5,24.89 28.26,48.86 9.87,76.14 -13.52,20.04 -127.12,41.24 -134.63,168.17 -8.25,139.46 113.36,132.89 46.41,207.25 -15.13,16.81 -28.23,36.79 -37.58,64.04 -32.21,93.95 13.29,157.57 74.23,208.48 23.2,19.39 26.95,37.38 8.67,65.86 -21.9,34.11 -53.82,105.25 -23.31,158.03z"/>
  <path class="fil0" d="M287.79 2167.26c4.2,35 80.87,142.67 106.39,180.16 40.24,59.12 88.77,109.54 138.85,159.62 17.73,17.73 81.33,87.08 105.26,90.67 46.28,-1.08 65.27,-22.47 100.85,-31.42 -7.7,-13.39 -17.91,-23.35 -27.14,-40.88 -76.27,-144.95 -40.31,-333.1 -34.9,-465.83 -79.19,-21.17 -143.85,-67.99 -249,-49.02 -44.36,8 -71.07,26.35 -96.2,52.73 -18.88,19.82 -47.09,63.43 -44.11,103.97z"/>
  <path class="fil5" d="M739.14 2566.29c89.32,78.82 209.4,55.65 249.24,-48.84 25.62,-67.18 -1.39,-106.73 -20.91,-162.34 -18.49,-52.63 -30.52,-103.82 -36.02,-161.94l-3.68 -78.99c-22.74,13.14 -31.25,29.86 -63.27,45.01 -26.19,12.38 -55.07,16.61 -85.11,5.96 -38.87,-13.78 -88.98,-64.02 -98.4,-109.12l-3.89 3.55c-5.41,132.73 -41.37,320.88 34.9,465.83 9.23,17.53 19.44,27.49 27.14,40.88z"/>
  <path class="fil5" d="M1162.35 1612.1c42.79,12.67 7.4,80.52 19.04,134.87 31.93,149.06 166.41,110.88 163.93,179.78 -0.73,20.1 -12.66,41.96 -13.63,70.09 -1.14,33.17 7.9,43.93 -0.94,75.88 12.83,28.46 42.99,58.44 78.81,69.61 48.8,15.22 79.87,2.61 125.68,-5.68 28.41,-76.67 27.75,-121.88 -5.69,-199.63 -23.31,-54.2 -59.89,-114.04 -88.74,-156.63 -34.13,-50.37 -65.69,-97.68 -96.67,-148.4 -22.52,-36.87 -74.47,-113.65 -88.04,-155.09 -15.94,26.69 -23.54,51.67 -42.44,77.13 -19.17,25.8 -28.99,37.67 -51.31,58.07z"/>
  <path class="fil1" d="M1062.11 1678.42c-17.4,16.07 -62.73,113.65 -76.65,148.45 -22.42,56.05 -38.54,117.04 -48.82,180.81 99.35,-10.1 161.79,30.34 194.57,93.14 27.33,52.35 55.43,23.89 93.05,7.51 46.53,-20.26 65.98,-3.25 106.49,-35.61 8.84,-31.95 -0.2,-42.71 0.94,-75.88 0.97,-28.13 12.9,-49.99 13.63,-70.09 2.48,-68.9 -132,-30.72 -163.93,-179.78 -11.64,-54.35 23.75,-122.2 -19.04,-134.87 -31.89,21.52 -59.04,48.18 -100.24,66.32z"/>
  <path class="fil0" d="M927.77 2114.18l3.68 78.99c79.73,41.94 323.82,309.91 552.74,15.11 19.81,-25.51 32.92,-40.77 51.05,-71.63 -45.81,8.29 -76.88,20.9 -125.68,5.68 -35.82,-11.17 -65.98,-41.15 -78.81,-69.61 -40.51,32.36 -59.96,15.35 -106.49,35.61 -37.62,16.38 -65.72,44.84 -93.05,-7.51 -32.78,-62.8 -95.22,-103.24 -194.57,-93.14l-8.87 106.5z"/>
  <path class="fil8" d="M995.39 356.26l94.13 21.47c58.89,17.26 123.07,56.34 156.15,90.17 73.3,12.49 120.16,5.39 147.08,-56.69 12.12,-27.94 18.94,-63.67 9.11,-94.92 -12.84,-40.86 -28.25,-33.74 -52.94,-57.09 -8.78,0 -7.09,2.49 -7.09,-5.33 -51.66,-4.3 -243.83,-133.14 -591.03,11.24 -54.78,22.77 -45.44,68.36 -17.49,85.98 25.32,15.96 82.17,-1.58 123.38,-1.41 54.76,0.23 89.84,2.57 138.7,6.58z"/>
  <path class="fil8" d="M1602.28 1490.18c92.49,-20.68 153.48,-41.92 186.13,-110.56 -45.19,-44.81 -87.28,-92.83 -123.22,-148.75 -38.27,-59.56 -65.69,-119.38 -64.88,-208.32 -87.49,21.88 -133.33,8.57 -211.23,-10.71 -25.16,189.7 131.83,402.61 213.2,478.34z"/>
  <path class="fil3" d="M1602.28 1490.18l149.97 154.82c35.18,34.91 129.83,163.38 133.31,165.2 40.27,9.75 88.49,-10.99 114.5,-29.43 25.16,-17.82 46.93,-58.64 48.54,-106.75 -9.38,-9.22 -113.65,-151.97 -154.82,-192.06l-105.37 -102.34c-32.65,68.64 -93.64,89.88 -186.13,110.56z"/>
  <path class="fil9" d="M1885.56 1810.2c11.74,26.68 29.31,50.07 44.95,77.43 12.99,22.74 26.57,50.34 39.5,77.68 21.57,45.6 48.8,121.67 56.14,177.19l0.9 2.64c12.45,-2.74 27.61,10.76 49.48,17.77 22.2,7.11 45.33,9.52 69.65,4.63 40.57,-8.16 78.97,-39.37 87.09,-71.81 -3.04,-54.24 -52.96,-184.68 -75.14,-227.83 -18.44,-35.89 -31.17,-63.77 -51.02,-98.16 -17.51,-30.35 -45.11,-67.29 -58.51,-95.72 -1.61,48.11 -23.38,88.93 -48.54,106.75 -26.01,18.44 -74.23,39.18 -114.5,29.43z"/>
  <path class="fil8" d="M1163.09 1262.69c-23.07,29.69 -38.45,84.81 -63.89,123.56 -20.71,31.55 -56.76,75.73 -87.08,94.16 -11.15,17.25 -34.05,28.6 -52.86,42.23 -2.79,43.16 2.42,71.85 23.01,103.32 13.58,20.76 41.61,50.14 79.84,52.46 41.2,-18.14 68.35,-44.8 100.24,-66.32 22.32,-20.4 32.14,-32.27 51.31,-58.07 18.9,-25.46 26.5,-50.44 42.44,-77.13 1.82,-62.71 18.35,-82.57 -3.02,-153.59 -12.79,-42.53 -33.05,-94.71 -89.99,-60.62z"/>
  <path class="fil7" d="M147.96 1546.49c33.49,15.2 58.53,31.63 94.45,46.75 34.68,14.59 63.63,25.71 100.52,38.07 73.05,24.47 146.73,39.47 226.56,51.79 -12.41,-34.48 -22.24,-56.46 -4.53,-95.26 11.57,-25.35 34.42,-53.94 63.81,-55.02 -21.95,-10.64 -97.17,-17.49 -130.39,-25.41 -41.05,-9.79 -81.43,-20.88 -119.89,-34.4 -114.92,-40.38 -136.24,-62.65 -214.54,-94.85 -0.73,1.19 -1.36,1.81 -1.54,3.88l-14.45 164.4 0 0.05z"/>
  <path class="fil0" d="M2026.89 1195.98c-17.09,-11.96 -17.19,-8.13 -32.36,-22.53 -10.22,-9.7 -15.95,-18.96 -24.26,-29.14 -45.35,-55.49 -128.34,-100.72 -197.16,-123 19.38,30.62 40.7,42.33 59.92,89.81 23.75,58.67 -21.55,215.07 114.76,159.15 65.6,-26.92 63.73,-60.45 79.1,-74.29z"/>
  <path class="fil6" d="M2324.41 1269.18c-0.9,-46.18 -4.05,-64.39 19.57,-98.3 15.44,-22.16 38.8,-44.14 74.81,-53.21 -46.1,-144.6 -223.62,-55.83 -175.88,52.54 17.75,40.29 37.17,38.65 76.45,59.01 -0.08,17.61 -3.51,28.22 5.05,39.96z"/>
  <path class="fil10" d="M1833.73 487.21c-30.51,9.12 -49.57,21.93 -63.14,41.06 -18.39,25.93 -6.42,60.43 24.44,61.22 35.67,0.9 26.79,-34.28 69.08,-33.24 38.26,0.95 35.65,26.75 43.04,59.32 13,57.3 107.95,29.15 59.16,-69.63 -18.88,-38.22 -69.74,-77.51 -132.58,-58.73z"/>
  <path class="fil11" d="M1932.92 929.05c10.8,-38.79 36.46,-63.66 69.43,-78.46 30.9,-13.87 24.71,-4.29 36.03,-20.38l-198.09 -58.21c9.82,27.71 74.9,140.65 92.63,157.05z"/>
 </g>
</svg>
