<?xml version="1.0" encoding="UTF-8"?>
<!DOCTYPE svg PUBLIC "-//W3C//DTD SVG 1.0//EN" "http://www.w3.org/TR/2001/REC-SVG-20010904/DTD/svg10.dtd">
<!-- Creator: CorelDRAW 2020 (64-Bit Versión de evaluación) -->
<svg xmlns="http://www.w3.org/2000/svg" xml:space="preserve" width="3cm" height="3cm" version="1.0" style="shape-rendering:geometricPrecision; text-rendering:geometricPrecision; image-rendering:optimizeQuality; fill-rule:evenodd; clip-rule:evenodd"
viewBox="0 0 3000 3000"
 xmlns:xlink="http://www.w3.org/1999/xlink"
 xmlns:xodm="http://www.corel.com/coreldraw/odm/2003">
 <defs>
  <style type="text/css">
   <![CDATA[
    .fil0 {fill:#086DC7}
    .fil1 {fill:white}
   ]]>
  </style>
   <clipPath id="id0">
    <rect x="-55893.52" y="-10280.48" width="50724.76" height="28532.68"/>
   </clipPath>
 </defs>
 <g id="Capa_x0020_1">
  <metadata id="CorelCorpID_0Corel-Layer"/>
  <path id="dark.svg" class="fil0" d="M1495.16 2929.54c780.83,0 1413.83,-633 1413.83,-1413.83 0,-780.84 -633,-1413.84 -1413.83,-1413.84 -780.84,0 -1413.84,633 -1413.84,1413.84 0,780.83 633,1413.83 1413.84,1413.83z"/>
  <g style="clip-path:url(#id0)">
   <image id="fraquezas-pokemon-go-2023-lista-com-todas-as-vantagens-e-desvantagens.jpg" x="-55893.52" y="-10280.48" width="50724.75" height="28532.67" xlink:href="dragon_Images\dragon_ImgID1.png"/>
  </g>
  <path id="dragon.svg" class="fil1" d="M1522.93 1487.07c15.35,-9.35 28.37,-28.96 38.87,-50.76 138.17,56.48 235.27,189.92 235.27,345.55 0,206.75 -171.36,374.35 -382.75,374.35 -86.78,0 -166.81,-28.25 -231,-75.85 -21.06,-9.97 -38.39,-19.55 -52.57,-27.39 -21.99,-12.16 -36.41,-20.13 -45.44,-18.88 -26.4,3.64 -18.74,27.92 -11.77,49.99 4.73,14.99 9.14,28.95 2.31,34.71 -7.13,6.03 -30.26,-16.02 -57.27,-41.77 -36.78,-35.07 -80.77,-77.01 -101.52,-64.41 -16.4,9.96 -0.47,36.98 19.02,70.06l1.45 2.46c8.23,13.98 17.77,28.22 26.48,41.21 17.7,26.41 31.96,47.69 24.83,51.29 -8.63,4.35 -68.71,-36.2 -119.34,-92.5 -19.54,-21.73 -38.47,-45.28 -56.06,-67.17l0 0c-38.51,-47.92 -70.58,-87.83 -88.59,-83.1 -21.67,5.69 -5.28,50.37 18.8,93.37 11.26,20.11 24.5,40.58 35.97,58.31l0 0.01c17.84,27.57 31.38,48.49 26.47,51.06 -6.63,3.46 -64.92,-53.38 -104.51,-125 -23.52,-42.55 -43.26,-89.57 -59.25,-127.63 -17.34,-41.29 -30.25,-72.04 -38.75,-75.13 -29.55,-10.75 -29.55,49.49 -17.7,136.42 1.55,11.35 3.85,23.24 6.69,35.36 114.91,371.8 467.9,642.51 885.54,642.51 510.86,0 924.98,-405.03 924.98,-904.67 0,-475.54 -375.14,-865.38 -851.78,-901.88 0.61,-22.4 12.3,-66.83 12.3,-66.83 0,0 84.14,-203.58 88.59,-247.09 0.29,-2.88 0.64,-6.02 1.02,-9.36 5.24,-47.01 14.99,-134.41 -60.2,-134.41 -40.15,0 -58.82,29.87 -80.18,64.04l0 0c-8.2,13.11 -16.79,26.86 -27.15,39.8 -74.6,93.15 -200.03,209.48 -271.16,271.46 -150.33,130.99 -297.82,238.65 -383.85,301.44l0 0 0 0c-39.13,28.56 -65.53,47.83 -73.7,55.8 -61.59,60.03 -282.41,458.34 -282.41,458.34 0,0 -71.41,127.78 -46.02,153.7 25.38,25.92 86.59,19.98 86.59,19.98 0,0 822.29,-188.64 895.91,-203.52 19.82,-4.01 33.81,-6.32 44.55,-8.09 29.17,-4.82 34.4,-5.69 67.33,-25.78zm-581.39 -242.42c-44.14,41.96 -117.34,142.1 -117.34,142.1 0,0 136.05,8.38 210.98,-62.84 74.93,-71.23 57.76,-192.61 57.76,-192.61 0,0 -107.26,71.4 -151.4,113.35z"/>
 </g>
</svg>
