<?xml version="1.0" encoding="UTF-8"?>
<!DOCTYPE svg PUBLIC "-//W3C//DTD SVG 1.0//EN" "http://www.w3.org/TR/2001/REC-SVG-20010904/DTD/svg10.dtd">
<!-- Creator: CorelDRAW 2020 (64-Bit Versión de evaluación) -->
<svg xmlns="http://www.w3.org/2000/svg" xml:space="preserve" width="3cm" height="3cm" version="1.0" style="shape-rendering:geometricPrecision; text-rendering:geometricPrecision; image-rendering:optimizeQuality; fill-rule:evenodd; clip-rule:evenodd"
viewBox="0 0 3000 3000"
 xmlns:xlink="http://www.w3.org/1999/xlink"
 xmlns:xodm="http://www.corel.com/coreldraw/odm/2003">
 <defs>
  <style type="text/css">
   <![CDATA[
    .fil0 {fill:#F4D23B}
   ]]>
  </style>
 </defs>
 <g id="Capa_x0020_1">
  <metadata id="CorelCorpID_0Corel-Layer"/>
  <path id="electric.svg" class="fil0" d="M942.09 204.77c-0.52,-1.48 0.59,-3.03 2.16,-3.03l932.4 0c1,0 1.89,0.65 2.19,1.61l428.27 1383.67c0.45,1.46 -0.65,2.95 -2.19,2.95l-620.74 0c-0.76,0 -1.3,0.72 -1.09,1.45l356.01 1253.24c0.69,2.43 -2.49,4.02 -4.02,1.99l-1383.51 -1839.85c-1.13,-1.51 -0.06,-3.65 1.82,-3.65l563.38 0c0.78,0 1.33,-0.78 1.07,-1.52l-275.75 -796.86z"/>
 </g>
</svg>
