<?xml version="1.0" encoding="UTF-8"?>
<!DOCTYPE svg PUBLIC "-//W3C//DTD SVG 1.0//EN" "http://www.w3.org/TR/2001/REC-SVG-20010904/DTD/svg10.dtd">
<!-- Creator: CorelDRAW 2020 (64-Bit Versión de evaluación) -->
<svg xmlns="http://www.w3.org/2000/svg" xml:space="preserve" width="3cm" height="3cm" version="1.0" style="shape-rendering:geometricPrecision; text-rendering:geometricPrecision; image-rendering:optimizeQuality; fill-rule:evenodd; clip-rule:evenodd"
viewBox="0 0 3000 3000"
 xmlns:xlink="http://www.w3.org/1999/xlink"
 xmlns:xodm="http://www.corel.com/coreldraw/odm/2003">
 <defs>
  <style type="text/css">
   <![CDATA[
    .fil10 {fill:#AC78E3}
    .fil7 {fill:#AC78E3}
    .fil3 {fill:#B186CC}
    .fil5 {fill:#B186CC}
    .fil8 {fill:#CC85CA}
    .fil1 {fill:#EE8EE8}
    .fil2 {fill:#F18DE3}
    .fil4 {fill:#F18DE3}
    .fil0 {fill:#F6B5FF}
    .fil6 {fill:#F6B5FF}
    .fil9 {fill:#FDFFFF}
   ]]>
  </style>
   <clipPath id="id0">
    <rect x="-55893.52" y="-10280.48" width="50724.76" height="28532.68"/>
   </clipPath>
 </defs>
 <g id="Capa_x0020_1">
  <metadata id="CorelCorpID_0Corel-Layer"/>
  <g style="clip-path:url(#id0)">
   <image id="fraquezas-pokemon-go-2023-lista-com-todas-as-vantagens-e-desvantagens.jpg" x="-55893.52" y="-10280.48" width="50724.75" height="28532.67" xlink:href="fairy1_Images\fairy1_ImgID1.png"/>
  </g>
  <path class="fil0" d="M1399.55 1295.74c43.96,12.66 30.53,49.14 28.84,98.41 -1.51,43.84 -3.65,88.15 -4.59,131.94 -2.61,121.43 91.2,115.66 60.7,190.35 13.78,20.7 31.48,34.66 41.82,58.34 21.12,15.03 50.5,81.24 51.67,90.88l-48.69 377.9c-10.56,72.49 35.14,144.48 106.04,173.85 70.38,29.15 137.2,58.54 205.6,87.62 -29.62,-86.95 -217.3,-447.72 -251.09,-539.86 -11,-30.01 5.99,-65.76 43.95,-49.35 20.9,9.03 31.03,50.8 42.11,74.87l106.06 227.24c23.65,53.27 49.16,103.1 72.33,155.2 18.12,40.73 80.65,125.46 16.21,142.96 17.19,10.92 19.71,16.76 30.09,38.22l70.47 151.78c8.88,17.54 13.86,31.72 22.89,51.2l47.58 100.58c13.78,28.71 6.5,33.45 40.64,33.45 11.16,-23.26 24.03,-108.54 30.53,-138.94 11.19,-52.36 -36.93,-218.48 -51.76,-279.05l-97.28 -421.3c-40.78,-162.25 -82.45,-134.54 -135.49,-213.75l-5.29 -5.3 -5.3 -5.29 -5.29 -5.29 -5.29 -5.29 -5.29 -5.29 -5.29 -5.29 -5.3 -5.3 -5.56 -5.29 0 -5.94c-34.04,-32.66 -26.15,-25.72 -36.04,-84.59 -5.44,-32.41 -11.05,-64.81 -15.81,-96.31l-10.8 -77.69c-54.15,-8.14 -32.19,-28.46 -56.14,-71.3 -14.05,-25.14 -40.68,-48.84 -59.37,-67.83 -58.26,-59.2 -125.2,-105.86 -75.65,-139.84 -18.2,-7.52 -27.56,-19.25 -36.96,-33.29 78.17,-116.73 94.33,-168.5 136.97,-312.82 25.88,-87.56 31.35,-202.68 8.08,-303.19 -8.24,-35.6 -14.03,-60.34 -39.22,-77.2 -27.14,18.18 -100.76,143.99 -147.36,201.88 -118.45,147.12 -363.44,210.65 -276.8,402.2 39.74,87.84 122.47,131.46 223.08,131.46l0 34.26z"/>
  <path class="fil1" d="M677.26 1303.82c-6.86,-35.62 18.56,-65.83 50.83,-67.48 28.55,-1.46 142.82,61.5 174.94,77.33 29.52,14.54 62.33,25.8 67.71,59.87 5.82,36.8 -19.54,65.19 -53.05,65.66 -27.43,0.39 -142.12,-62.38 -173.69,-77.99 -31.91,-15.78 -60.19,-23.44 -66.74,-57.39zm-192.78 -89.96c-13.33,-37.79 11.43,-70.68 42.33,-74.9 38.34,-5.23 69.58,17.44 76.54,45.8 20.6,84 -97.63,89.3 -118.87,29.1zm-201.47 61.89c43.54,88.61 37.52,358.13 418.63,397.67 131.51,13.65 244.5,7.97 357.22,-38.23 132.34,-54.24 188.89,-113.24 261.55,-151.18 8.11,-59.01 9.89,-94.75 25.67,-148.44 -48.32,-11.86 -530.71,-265.71 -627.39,-313.98 -28.71,-14.33 -49.44,-27.53 -75.81,-40.61 -113.11,-56.09 -303.8,-178.37 -355.24,73.47 -10.58,51.82 -20.25,164 -4.63,221.3z"/>
  <path class="fil2" d="M2121.86 1208.57c-15.06,-117.01 61.01,-110.3 66.82,-58.37 13.33,119.18 -61.75,97.83 -66.82,58.37zm100.08 -280.46c-16.47,-117.97 59.17,-107.81 66.27,-63.17 19.25,120.94 -60.64,103.49 -66.27,63.17zm-594.77 291.04c30.68,26.58 303.25,179.9 352.91,191.43 74.03,-28.44 207.55,-127.71 258.19,-172.8 64.58,-57.48 143.4,-130.58 182.32,-241.31 -11.16,-22.63 -11.04,-42.91 -9.64,-73.87 1.41,-31.44 8.84,-40.51 40.33,-40.64 18.25,-218.89 -91.93,-513 -231.52,-585.41l-72.39 114.66c-24.18,40.95 -49.79,75.29 -74.09,116.42l-218.7 347.51c-25.31,38.02 -48.6,78.44 -74.03,116.47 -25.65,38.37 -49.61,74.41 -76.2,114.29l-77.18 113.25z"/>
  <path class="fil3" d="M2219.76 296.55c139.59,72.41 249.77,366.52 231.52,585.41 32.83,13.25 29.18,32.81 27.43,78.22 -1.61,41.54 -22.53,49.97 -58.12,36.29 -38.92,110.73 -117.74,183.83 -182.32,241.31 -50.64,45.09 -184.16,144.36 -258.19,172.8 36.12,24.48 181.37,74.04 234.39,83.47 19.31,-16.09 156.53,-93.17 223.44,-152 42.23,-37.13 84.49,-69.07 119.73,-113.1 57.44,-71.77 76.49,-79.43 122.65,-184.27 71.23,-161.76 53.49,-345.99 -6.16,-512.74 -38.82,-108.51 -136.43,-327.55 -267.04,-349.96l-43.07 0c-23.62,3.99 -48.12,14.71 -73.39,33.83 -33.64,25.44 -45.86,51.83 -70.87,80.74z"/>
  <path class="fil4" d="M2466.28 1929.57c-14.46,-27.4 -25.37,-116.63 23.38,-116.76 48.93,-0.12 38,89.4 23.58,116.93 -18.18,4.89 -28.99,4.95 -46.96,-0.17zm-732.56 -320.47c4.76,31.5 10.37,63.9 15.81,96.31 9.89,58.87 2,51.93 36.04,84.59 84.29,65.86 151.4,118.67 265.31,174.94 115.32,56.96 196.84,104.34 350.78,60.69 326.35,-92.55 207.17,-360.92 -72.63,-418.58 -25.55,98.21 -97.81,85.64 -188.59,61.87 -76.32,-19.98 -145.86,-47.64 -215.63,-76.16l-191.09 16.34z"/>
  <path class="fil5" d="M1145.55 1859.41l105.83 -34.8c28.68,-107.01 56.52,-225.1 69.03,-340.6 -72.66,37.94 -129.21,96.94 -261.55,151.18 -112.72,46.2 -225.71,51.88 -357.22,38.23 -381.11,-39.54 -375.09,-309.06 -418.63,-397.67 0,81.46 44.45,236.76 72.24,294.49 88.16,183.09 237.8,271.67 446.32,294.51 167.29,18.32 133.05,6.48 259.51,5.47 31.88,-0.25 56.63,-8.42 84.47,-10.81z"/>
  <path class="fil5" d="M1468.94 1722.03c-9.93,78.68 -49.98,196.67 -76.13,268.18 -14.96,40.92 -32.89,81.91 -51.83,117.46 -17.87,33.54 -59.36,62.73 -115.33,43.03 -78.2,206.27 -351.36,273.51 -385.77,130.7 -17.48,-72.59 27.31,-124.84 47.9,-173.25 -28.96,17.78 -94.63,127.08 -112.73,163.96 -46.97,95.66 -62.74,238.72 51.24,287.6 99.36,42.61 241.64,-7.41 323.6,-60.93 92.36,-60.31 183.64,-215.7 233.79,-316.54 66.58,-133.89 96.61,-209.46 129.11,-352.44 1.9,-8.39 3.34,-17.06 5.24,-26.52 0.2,-0.99 2.63,-12.49 2.79,-13.06 0.36,-1.35 0.78,-2.82 1.17,-4.09 0.37,-1.23 0.97,-2.83 1.33,-3.91l3 -7.44c-10.34,-23.68 -28.04,-37.64 -41.82,-58.34l-15.56 5.59z"/>
  <path class="fil5" d="M2329.03 1607.05c279.8,57.66 398.98,326.03 72.63,418.58 -153.94,43.65 -235.46,-3.73 -350.78,-60.69 -113.91,-56.27 -181.02,-109.08 -265.31,-174.94l0 5.94 5.56 5.29 5.3 5.3 5.29 5.29 5.29 5.29 5.29 5.29 5.29 5.29 5.3 5.29 5.29 5.3c19.37,5.17 22.54,16.37 39.27,29.51l127.88 94.38c60.76,39.79 122.17,70.75 187.37,103.67l97.46 45.41c277.36,116.07 706.03,-122.02 464.8,-364.26 -87.78,-88.16 -319.96,-171.58 -417.56,-173.3l1.63 33.36z"/>
  <path class="fil6" d="M1531.76 1252.44c41.1,-5.17 52.89,20.36 73.45,41.5 21.23,21.81 38.87,39.85 60.25,61.47 38.26,38.72 76.09,72 84.15,154.06 28.49,11.77 55.29,28.36 84.75,42.02 29.27,13.58 62.87,27.08 90.45,41.27 69.77,28.52 139.31,56.18 215.63,76.16 90.78,23.77 163.04,36.34 188.59,-61.87l-1.63 -33.36 -13.05 -30.96c-21.62,-33.02 -57.54,-44.27 -99.88,-48.68 -53.02,-9.43 -198.27,-58.99 -234.39,-83.47 -49.66,-11.53 -322.23,-164.85 -352.91,-191.43 -48.39,0 -78.07,2.96 -95.41,33.29z"/>
  <path class="fil4" d="M1145.55 1859.41c-9.76,13.37 -81.26,62.77 -104.61,85.92 -11.77,11.66 -19.46,21.16 -32.19,31.32 -26.49,21.13 -108.89,106.52 -120.97,131.5 -20.59,48.41 -65.38,100.66 -47.9,173.25 34.41,142.81 307.57,75.57 385.77,-130.7 -25.56,-10.18 -51.45,-35.42 -57.78,-65.06 -8.31,-38.94 7.04,-64.31 21.05,-92.99 27.56,-56.41 40.59,-109.23 62.46,-168.04l-105.83 34.8z"/>
  <path class="fil6" d="M1346.08 1335.57c-15.78,53.69 -17.56,89.43 -25.67,148.44 -12.51,115.5 -40.35,233.59 -69.03,340.6 -21.87,58.81 -34.9,111.63 -62.46,168.04 -14.01,28.68 -29.36,54.05 -21.05,92.99 6.33,29.64 32.22,54.88 57.78,65.06 55.97,19.7 97.46,-9.49 115.33,-43.03 18.94,-35.55 36.87,-76.54 51.83,-117.46 26.15,-71.51 66.2,-189.5 76.13,-268.18 -32.7,-1.46 -50.84,-28.78 -72.8,-60.32 -61.88,-88.87 -41.18,-209.79 -32.06,-342.02l-18 15.88z"/>
  <path class="fil7" d="M923.3 727.02c32.03,-7.46 20.75,-14.37 40.78,-65.05 7.36,-18.61 21.77,-69.23 29.93,-81.2 22.81,-33.47 135.66,-42.52 135.66,-86.58 0,-32.2 -113.54,-48.98 -135.66,-81.3 -26.98,-39.43 -29.19,-135.16 -70.71,-146.24 -31.33,20.98 -42.61,115.58 -63.43,148.24 -8.34,13.08 -17.35,13.08 -33.26,19.65 -41.17,17 -154.2,55.86 -80.54,88.68 128.58,57.26 105.96,32.49 140.86,129.05 10.3,28.5 12.61,58.84 36.37,74.75z"/>
  <path class="fil8" d="M1840.94 2505.03c13.09,11.96 5.72,9.67 29.57,11.06 64.44,-17.5 1.91,-102.23 -16.21,-142.96 -23.17,-52.1 -48.68,-101.93 -72.33,-155.2l-106.06 -227.24c-11.08,-24.07 -21.21,-65.84 -42.11,-74.87 -37.96,-16.41 -54.95,19.34 -43.95,49.35 33.79,92.14 221.47,452.91 251.09,539.86z"/>
  <path class="fil7" d="M251.25 2372.73c49.23,-1.09 27.48,-49.74 60.63,-103.41 10.08,-16.32 33.98,-23.1 53.56,-31.11 10.51,-4.3 21.33,-9.03 29.02,-13.31 19.76,-10.99 10.44,-1.85 20.84,-21.5 -10.4,-19.65 -3.62,-15.21 -46.88,-32.5 -13.7,-5.47 -45.51,-18.65 -54.79,-29.88 -11.47,-13.89 -25.29,-74.44 -34.56,-92.43 -10.21,-19.8 -0.96,-13.92 -27.82,-14.52 -3.47,14.92 -35.13,104.12 -41.91,111.54 -15.46,16.93 -96.52,31.89 -98.14,58.85 -1.43,23.89 71.25,35.96 95.02,54.56 13.22,10.33 41.36,97.94 45.03,113.71z"/>
  <path class="fil9" d="M677.26 1303.82c6.55,33.95 34.83,41.61 66.74,57.39 31.57,15.61 146.26,78.38 173.69,77.99 33.51,-0.47 58.87,-28.86 53.05,-65.66 -5.38,-34.07 -38.19,-45.33 -67.71,-59.87 -32.12,-15.83 -146.39,-78.79 -174.94,-77.33 -32.27,1.65 -57.69,31.86 -50.83,67.48z"/>
  <path class="fil5" d="M2558.43 2637.32c0,130.08 206.37,136.87 206.37,0 0,-134.84 -206.37,-132.67 -206.37,0z"/>
  <path class="fil8" d="M1364.08 1319.69c-9.12,132.23 -29.82,253.15 32.06,342.02 21.96,31.54 40.1,58.86 72.8,60.32l15.56 -5.59c30.5,-74.69 -63.31,-68.92 -60.7,-190.35 0.94,-43.79 3.08,-88.1 4.59,-131.94 1.69,-49.27 15.12,-85.75 -28.84,-98.41 -21.63,-2.51 -30.16,8.89 -35.47,23.95z"/>
  <path class="fil8" d="M1722.92 1531.41c14.4,-8.57 17.9,-11.93 26.69,-21.94 -8.06,-82.06 -45.89,-115.34 -84.15,-154.06 -21.38,-21.62 -39.02,-39.66 -60.25,-61.47 -20.56,-21.14 -32.35,-46.67 -73.45,-41.5 -49.55,33.98 17.39,80.64 75.65,139.84 18.69,18.99 45.32,42.69 59.37,67.83 23.95,42.84 1.99,63.16 56.14,71.3z"/>
  <path class="fil9" d="M484.48 1213.86c21.24,60.2 139.47,54.9 118.87,-29.1 -6.96,-28.36 -38.2,-51.03 -76.54,-45.8 -30.9,4.22 -55.66,37.11 -42.33,74.9z"/>
  <path class="fil8" d="M1722.92 1531.41l10.8 77.69 191.09 -16.34c-27.58,-14.19 -61.18,-27.69 -90.45,-41.27 -29.46,-13.66 -56.26,-30.25 -84.75,-42.02 -8.79,10.01 -12.29,13.37 -26.69,21.94z"/>
  <path class="fil10" d="M2221.94 928.11c5.63,40.32 85.52,57.77 66.27,-63.17 -7.1,-44.64 -82.74,-54.8 -66.27,63.17z"/>
  <path class="fil7" d="M2466.28 1929.57c17.97,5.12 28.78,5.06 46.96,0.17 14.42,-27.53 25.35,-117.05 -23.58,-116.93 -48.75,0.13 -37.84,89.36 -23.38,116.76z"/>
  <path class="fil7" d="M2121.86 1208.57c5.07,39.46 80.15,60.81 66.82,-58.37 -5.81,-51.93 -81.88,-58.64 -66.82,58.37z"/>
  <path class="fil10" d="M2420.59 996.47c35.59,13.68 56.51,5.25 58.12,-36.29 1.75,-45.41 5.4,-64.97 -27.43,-78.22 -31.49,0.13 -38.92,9.2 -40.33,40.64 -1.4,30.96 -1.52,51.24 9.64,73.87z"/>
  <path class="fil7" d="M1807.01 282.52c0,23.6 21.43,47.63 42.33,47.63 40.51,0 56.98,-44.13 35.07,-71.89 -25.36,-32.13 -77.4,-11.52 -77.4,24.26z"/>
 </g>
</svg>
