<?xml version="1.0" encoding="UTF-8"?>
<!DOCTYPE svg PUBLIC "-//W3C//DTD SVG 1.0//EN" "http://www.w3.org/TR/2001/REC-SVG-20010904/DTD/svg10.dtd">
<!-- Creator: CorelDRAW 2020 (64-Bit Versión de evaluación) -->
<svg xmlns="http://www.w3.org/2000/svg" xml:space="preserve" width="3cm" height="3cm" version="1.0" style="shape-rendering:geometricPrecision; text-rendering:geometricPrecision; image-rendering:optimizeQuality; fill-rule:evenodd; clip-rule:evenodd"
viewBox="0 0 3000 3000"
 xmlns:xlink="http://www.w3.org/1999/xlink"
 xmlns:xodm="http://www.corel.com/coreldraw/odm/2003">
 <defs>
  <style type="text/css">
   <![CDATA[
    .fil3 {fill:#A63352}
    .fil1 {fill:#A63352}
    .fil2 {fill:#B3B3B3}
    .fil0 {fill:#D73C66}
   ]]>
  </style>
   <clipPath id="id0">
    <rect x="-55893.52" y="-10280.48" width="50724.76" height="28532.68"/>
   </clipPath>
 </defs>
 <g id="Capa_x0020_1">
  <metadata id="CorelCorpID_0Corel-Layer"/>
  <g style="clip-path:url(#id0)">
   <image id="fraquezas-pokemon-go-2023-lista-com-todas-as-vantagens-e-desvantagens.jpg" x="-55893.52" y="-10280.48" width="50724.75" height="28532.67" xlink:href="fighting_Images\fighting_ImgID1.png"/>
  </g>
  <path class="fil0" d="M513.19 1790.61l1085.19 572.63 5.09 -4.61c111.55,-214.35 182.26,-284.28 372.05,-443.59 35.11,-29.47 68.92,-55.91 103.77,-84.12 26.84,-21.73 82.26,-57.43 101.4,-77.02 49.06,-50.28 109.88,-235.55 162.84,-293.03 53.55,-161.6 224.88,-299.2 156.53,-556.91 -7.45,-28.08 -14.97,-61.05 -31.06,-91.75 -93.81,-179.1 -190.65,-203.28 -366.62,-296.14l-484.55 -255.94c-183.06,-94.01 -430.89,-31.49 -567.07,145.95 -40.1,52.25 -214.17,396.07 -260.1,483.12 -88.02,166.8 -162.26,279.12 -197.41,466.45 -25.96,138.35 -23.45,322.05 -80.06,434.96z"/>
  <polygon class="fil0" points="1543.38,2467.47 1284.37,2332.37 1176.43,2537.85 608.68,2235.58 715.89,2032.4 458.19,1894.84 293.79,2206.38 1378.99,2779.01 "/>
  <path class="fil1" d="M1603.47 2358.63c14.88,-13.53 11.3,-19.53 32.03,-35 68.38,-51.07 125.12,-60.88 198.15,-80.38 53.16,-14.19 216.72,-59.7 252.17,-76.04 25.08,-11.55 52.97,-20.47 79.15,-32.48 132.41,-60.74 292.78,-184.73 324.89,-355.96 17.39,-92.68 -5.25,-183.3 -66.44,-251.09 -37.45,-41.48 -59.06,-46.57 -79.89,-66.81 -52.96,57.48 -113.78,242.75 -162.84,293.03 -19.14,19.59 -74.56,55.29 -101.4,77.02 -34.85,28.21 -68.66,54.65 -103.77,84.12 -189.79,159.31 -260.5,229.24 -372.05,443.59z"/>
  <polygon class="fil2" points="1284.37,2332.37 715.89,2032.4 608.68,2235.58 1176.43,2537.85 "/>
  <polygon class="fil3" points="458.19,1894.84 715.89,2032.4 1284.37,2332.37 1543.38,2467.47 1598.38,2363.24 513.19,1790.61 "/>
 </g>
</svg>
