<?xml version="1.0" encoding="UTF-8"?>
<!DOCTYPE svg PUBLIC "-//W3C//DTD SVG 1.0//EN" "http://www.w3.org/TR/2001/REC-SVG-20010904/DTD/svg10.dtd">
<!-- Creator: CorelDRAW 2020 (64-Bit Versión de evaluación) -->
<svg xmlns="http://www.w3.org/2000/svg" xml:space="preserve" width="3cm" height="3cm" version="1.0" style="shape-rendering:geometricPrecision; text-rendering:geometricPrecision; image-rendering:optimizeQuality; fill-rule:evenodd; clip-rule:evenodd"
viewBox="0 0 3000 3000"
 xmlns:xlink="http://www.w3.org/1999/xlink"
 xmlns:xodm="http://www.corel.com/coreldraw/odm/2003">
 <defs>
  <style type="text/css">
   <![CDATA[
    .fil2 {fill:#E40059}
    .fil0 {fill:#E50057}
    .fil1 {fill:#FFDD46}
   ]]>
  </style>
   <clipPath id="id0">
    <rect x="-55284.9" y="-10788.49" width="50724.76" height="28532.68"/>
   </clipPath>
 </defs>
 <g id="Capa_x0020_1">
  <metadata id="CorelCorpID_0Corel-Layer"/>
  <g style="clip-path:url(#id0)">
   <image id="fraquezas-pokemon-go-2023-lista-com-todas-as-vantagens-e-desvantagens.jpg" x="-55284.9" y="-10788.49" width="50724.75" height="28532.67" xlink:href="fire_Images\fire_ImgID1.png"/>
  </g>
  <g id="_1717334592960">
   <path class="fil0" d="M916.29 1247.52c-45.58,30.52 -134.25,136.05 -168.32,185.37 -164.83,238.66 -268.08,523.21 -171.38,813.51 8.04,24.15 14.6,43.14 22.68,63.06 127.08,313.22 452.59,540.45 796.3,540.45 -30.64,-15.38 -98.69,-23.24 -144.49,-45.29 -235.56,-113.43 -338.23,-353.5 -225.76,-612 31.19,-71.69 114.11,-190.74 158.18,-216.18 6.61,94 21.56,187.78 69.36,252.85 59.81,81.41 156.16,48.26 207.64,-14.07 45.76,-55.4 86.98,-126.72 107.59,-219.66 26.28,-118.52 11.15,-179.78 -13.36,-288.32 27.28,15.39 46.25,35.48 69.83,53.81 143.29,111.43 315.93,326.01 369.86,509.02 42.36,143.75 30.38,300.68 -47.81,404.32 -113.25,150.1 -282.56,149.31 -332.06,170.15 180.58,0 430.74,-90.38 564.92,-205.22 54.61,-46.73 76.79,-70.5 124.1,-133.16 230.43,-305.2 174.96,-740.84 25.71,-1074.61l-82.18 -175.05c-10.4,-20.64 -17.08,-44.91 -33.89,-57.22 -17.24,207.23 -203.79,401.27 -389.17,346.31 -23.85,-7.07 -44.72,-18.09 -61.15,-29.97 -32.25,-23.34 -71.76,-63.53 -90.8,-96.75 -44.63,-77.84 -42.97,-149.24 -5.64,-225.07 11.55,-23.47 22.12,-38.29 36.49,-59.98l42.72 -53.74c30.55,-34.67 66.2,-55.57 96.19,-91.38 63.39,-75.72 106.46,-138.74 138.91,-236.23 50.66,-152.15 31.5,-304.89 -85.03,-420.08 -54.3,-53.67 -156.97,-134.54 -229.15,-151.35 18.27,34.54 41.8,49.77 59.13,112.36 36.16,130.58 -33.32,322.73 -127.66,381.82 -55.71,34.91 -117.44,49.73 -177.83,84.79 -219.58,127.49 -268.12,269.84 -268.12,530.38 0,100.3 9.79,265.54 -35.98,317.72 -58.59,66.82 -193.02,16.49 -226.06,-66.41 -42.04,-105.54 7.63,-214.31 26.23,-294.18z"/>
   <path class="fil1" d="M1395.57 2849.91c37.98,0 65.58,8.77 109.95,5.08 18.92,-1.58 96.76,-5.4 109.03,-10.45 49.5,-20.84 218.81,-20.05 332.06,-170.15 78.19,-103.64 90.17,-260.57 47.81,-404.32 -53.93,-183.01 -226.57,-397.59 -369.86,-509.02 -23.58,-18.33 -42.55,-38.42 -69.83,-53.81 24.51,108.54 39.64,169.8 13.36,288.32 -20.61,92.94 -61.83,164.26 -107.59,219.66 -51.48,62.33 -147.83,95.48 -207.64,14.07 -47.8,-65.07 -62.75,-158.85 -69.36,-252.85 -44.07,25.44 -126.99,144.49 -158.18,216.18 -112.47,258.5 -9.8,498.57 225.76,612 45.8,22.05 113.85,29.91 144.49,45.29z"/>
   <polygon class="fil2" points="916.29,1247.52 921.65,1247.52 917.19,1241.26 "/>
  </g>
 </g>
</svg>
