<?xml version="1.0" encoding="UTF-8"?>
<!DOCTYPE svg PUBLIC "-//W3C//DTD SVG 1.0//EN" "http://www.w3.org/TR/2001/REC-SVG-20010904/DTD/svg10.dtd">
<!-- Creator: CorelDRAW 2020 (64-Bit Versión de evaluación) -->
<svg xmlns="http://www.w3.org/2000/svg" xml:space="preserve" width="3cm" height="3cm" version="1.0" style="shape-rendering:geometricPrecision; text-rendering:geometricPrecision; image-rendering:optimizeQuality; fill-rule:evenodd; clip-rule:evenodd"
viewBox="0 0 3000 3000"
 xmlns:xlink="http://www.w3.org/1999/xlink"
 xmlns:xodm="http://www.corel.com/coreldraw/odm/2003">
 <defs>
  <style type="text/css">
   <![CDATA[
    .fil0 {fill:#91ADD5}
   ]]>
  </style>
   <clipPath id="id0">
    <rect x="-55564.71" y="-9941.82" width="50724.76" height="28532.68"/>
   </clipPath>
 </defs>
 <g id="Capa_x0020_1">
  <metadata id="CorelCorpID_0Corel-Layer"/>
  <g style="clip-path:url(#id0)">
   <image id="fraquezas-pokemon-go-2023-lista-com-todas-as-vantagens-e-desvantagens.jpg" x="-55564.71" y="-9941.82" width="50724.75" height="28532.67" xlink:href="Flying_Images\Flying_ImgID1.png"/>
  </g>
  <path id="flying.svg" class="fil0" d="M1104.75 2678.81c396.11,0 735.23,-220.15 875.23,-532.23 1.71,-3.81 -562.08,146.52 -544.1,93.38 8.03,-23.73 353.63,-149.99 605.43,-297.25 144.72,-84.65 211.37,-263.82 211.37,-263.82 0,0 -243.82,118.38 -367.08,148.41 -248.39,60.52 -467.04,54 -467.04,47.7 0,-13.64 363.06,-82.62 867.67,-390.13 237.36,-144.64 301.83,-393.78 301.83,-393.78 0,0 -260.95,155.44 -418.7,206.76 -374.11,121.7 -715.51,158.37 -715.51,141.9 0,-35.25 300.44,-117.87 618.98,-272.22 165.62,-80.24 309.06,-185.09 475.27,-301.68 271.98,-190.77 316.83,-530.53 316.83,-530.53 0,0 -268.24,173.02 -399.15,230.48 -540.17,237.08 -1017.13,361.45 -1361.03,388.37 -519.13,40.65 -943.83,402.85 -943.83,873.13 0,470.27 422.56,851.51 943.83,851.51z"/>
 </g>
</svg>
