<?xml version="1.0" encoding="UTF-8"?>
<!DOCTYPE svg PUBLIC "-//W3C//DTD SVG 1.0//EN" "http://www.w3.org/TR/2001/REC-SVG-20010904/DTD/svg10.dtd">
<!-- Creator: CorelDRAW 2020 (64-Bit Versión de evaluación) -->
<svg xmlns="http://www.w3.org/2000/svg" xml:space="preserve" width="3cm" height="3cm" version="1.0" style="shape-rendering:geometricPrecision; text-rendering:geometricPrecision; image-rendering:optimizeQuality; fill-rule:evenodd; clip-rule:evenodd"
viewBox="0 0 3000 3000"
 xmlns:xlink="http://www.w3.org/1999/xlink"
 xmlns:xodm="http://www.corel.com/coreldraw/odm/2003">
 <defs>
  <style type="text/css">
   <![CDATA[
    .str0 {stroke:#5468B1;stroke-width:20;stroke-miterlimit:22.9256}
    .fil4 {fill:#1A2B63}
    .fil1 {fill:#5468B1}
    .fil3 {fill:#5468B1}
    .fil2 {fill:#AEC1ED}
    .fil0 {fill:white}
   ]]>
  </style>
   <clipPath id="id0">
    <rect x="-55893.52" y="-10280.48" width="50724.76" height="28532.68"/>
   </clipPath>
 </defs>
 <g id="Capa_x0020_1">
  <metadata id="CorelCorpID_0Corel-Layer"/>
  <g style="clip-path:url(#id0)">
   <image id="fraquezas-pokemon-go-2023-lista-com-todas-as-vantagens-e-desvantagens.jpg" x="-55893.52" y="-10280.48" width="50724.75" height="28532.67" xlink:href="ghost_Images\ghost_ImgID1.png"/>
  </g>
  <g id="_1717437893568">
   <path class="fil0" d="M1901.87 545.84c83.62,-21.06 143.06,59.74 151.98,132.23 10.77,87.43 -34.52,171.42 -101.99,187.26 -174.07,40.83 -217.41,-277.32 -49.99,-319.49zm-396.73 29.78c4.18,12.59 16.71,24.03 23.73,36.7 40.93,73.83 28.7,174.01 -38.36,232.09 -32.82,28.43 -54.15,19.54 -99.93,23.8l-7.68 2.41c-22.97,181.41 7.9,345.95 68.19,497.32 46.69,117.22 141.66,254.14 234.46,342.07 88.01,83.4 209.13,164.62 358.92,217.74 66.01,23.42 165.66,59.54 238.24,56.64 57.92,-2.32 246.52,12.12 280.57,-0.51 11.23,-10.03 274.61,-91.52 280.28,-109.37 46.98,-30.74 -217.34,-68.16 -217.34,-99.05 -25.43,-26.04 -71.72,-133.43 -88.07,-176.93 -22.73,-60.48 -44.13,-144.65 -52.36,-214.29 -20.08,-169.94 0.33,-345.49 -16.49,-517.94 -3.5,-85.56 -68.23,-229.13 -120.45,-298.94l-45.66 -56.05c-56.07,-66.28 -101.76,-99.63 -175.52,-144.11 -41.88,-25.26 -145.92,-73.24 -206.84,-77.22 -12.55,6.63 -47.77,13.46 -64.48,19.19 -110.13,37.74 -191.76,89.47 -275.11,166.03 -14.66,13.47 -72.81,79.21 -76.1,100.42z"/>
   <path class="fil0" d="M751.84 1363.3c133.28,-38.58 176.82,220.06 45.12,254.8 -136.22,35.93 -180.91,-215.49 -45.12,-254.8zm-196.09 -8.04c-3.66,15.6 0.12,5.02 -11.24,20.15 -159.31,212.4 -105.94,363.18 -119.66,619.12 -4.47,83.38 -23.98,134.92 -41.68,208.45 -17.06,48.52 -39.29,63.97 -77.85,87.74 -65.83,28.1 -96.74,-9.51 -80.67,47.11 32.48,66.11 91.46,106.33 215.1,139.39 130.48,31.79 237.33,41.95 254.11,43.92 101.94,0 202.35,-7.82 293.27,-39.35 121.74,-42.22 215.18,-109.97 224.61,-112.61l101.87 -93.82c79.32,-75.8 204.86,-288.77 197.22,-371.95 -0.45,-21.65 -19.49,-25.43 -38.29,-38.49l-194.27 -173.68c-26.27,-31.89 -48.52,-72.06 -69.44,-72.1 -35.38,-0.78 -47.27,8.28 -79.51,-11.48 -42.43,-26 -61.4,-83.49 -55.97,-135.14 3.38,-32.09 15.59,-45.54 21.37,-67.79 -4.63,-30.03 -26.99,-77.91 -36.9,-112.88 -11.66,-41.15 -19.38,-78.4 -28.65,-120.44l-30.17 -9.02c-274.18,-12.71 -410.67,173.63 -443.25,192.87z"/>
   <path class="fil1" d="M383.17 2202.98c17.7,-73.53 37.21,-125.07 41.68,-208.45 13.72,-255.94 -39.65,-406.72 119.66,-619.12 11.36,-15.13 7.58,-4.55 11.24,-20.15 16.39,-87.97 46.39,-163.3 80.74,-236.51 91.96,-196.01 304.58,-374.53 508.5,-433.54 12.84,-16.78 25.42,-50.14 38.2,-70.56 43.65,-69.73 87.16,-124.44 151.81,-177.63 40.78,-33.55 79.35,-60.95 131.65,-86.49 27.68,-13.53 46.53,-22.93 77.09,-33.9 17.56,-6.29 66.15,-17.64 78.52,-26.65 -28.33,0 -123.14,-14.52 -206.79,-14.52 -76.7,0 -140.65,4.22 -206.94,15.84 -125.92,22.07 -240.33,59.92 -340.32,110.07 -85.17,42.72 -132.57,73 -206.18,127.99l-121.93 105.69c-220.71,220.72 -348.88,519 -364.44,824.81l0 126.05c8.29,161.81 48.71,323.04 124.3,473.39 17.62,35.05 59.46,112.37 83.21,143.68z"/>
   <path class="fil1" d="M1211.74 2369.18c-9.43,2.64 -102.87,70.39 -224.61,112.61 -90.92,31.53 -191.33,39.35 -293.27,39.35 8.34,13.71 34.69,28.55 50.48,38.17 21.82,13.31 35.14,21.95 57.56,34.46 128.52,71.67 239.95,113.27 394.37,143.2 36.57,7.09 103.61,16.73 150.63,18.11l88.08 0 1.36 0 4.1 0 1.36 0 3.33 0c271.95,0.18 519.43,-101.84 729.32,-258.05 138.22,-102.87 244.01,-237.24 330.48,-386.29 13.52,-23.29 52.9,-100.83 58.34,-126.87l-412.82 0.77c-32.09,72.47 -169.51,208.9 -253.05,259.68 -128.44,78.09 -209.38,112.2 -370.73,137.34 -151.87,23.66 -261.31,-15.38 -314.93,-12.48z"/>
   <path class="fil2" d="M1622.26 289.98c-12.37,9.01 -60.96,20.36 -78.52,26.65 -30.56,10.97 -49.41,20.37 -77.09,33.9 -52.3,25.54 -90.87,52.94 -131.65,86.49 -64.65,53.19 -108.16,107.9 -151.81,177.63 -12.78,20.42 -25.36,53.78 -38.2,70.56 -55.37,145.11 -84.5,313.36 -41.68,487.78 1.32,55.63 38.36,139.93 53.25,189.53 18.89,33 33.84,72.46 51.26,103.61 11.76,21.04 52.12,80.22 57.03,97.14l16.91 17.87c28.44,37.29 39.37,53.77 75.03,89.41l65.72 65.09c12.1,10.27 20.03,18.12 33.98,29.04 13.65,10.69 24.59,18.09 38.96,28.91l37.8 26.33c42.4,24.04 76.71,46.11 124.1,68.48 42.31,19.98 93.35,40.6 143.16,55.42 114.9,34.17 220.17,41.79 349.94,40.82l412.82 -0.77c6.37,-2.33 4.84,9.76 4.84,-13.34 -34.06,12.64 -227.48,3.94 -285.4,6.25 -72.58,2.91 -172.23,-25.61 -238.24,-49.03 -149.79,-53.12 -270.91,-134.34 -358.92,-217.74 -92.8,-87.93 -187.77,-224.85 -234.46,-342.07 -60.29,-151.37 -91.16,-315.91 -68.19,-497.32l7.68 -2.41c-14.05,-14.5 -35.92,-19.25 -51.98,-36.42 -79.29,-84.75 -53.26,-243.12 42.11,-281.2 61.42,-24.52 87.62,6.56 124.43,25.03 3.29,-21.21 61.44,-86.95 76.1,-100.42 83.35,-76.56 164.98,-128.29 275.11,-166.03 16.71,-5.73 51.93,-12.56 64.48,-19.19 -16.26,-12.48 -111.19,-14.5 -146.98,-14.52l-1.48 0 -2.92 0c-29.37,0.01 -49.84,0.44 -73.95,3.97 -24.41,3.57 -50.81,10.11 -73.24,10.55z"/>
   <path class="fil3 str0" d="M1510.83 1903.41c7.65,83.18 -117.9,296.15 -197.22,371.95l-101.87 93.82c53.62,-2.9 163.06,36.14 314.93,12.48 161.35,-25.14 242.29,-59.25 370.73,-137.34 83.54,-50.78 220.96,-187.21 253.05,-259.68 -129.77,0.97 -235.04,-6.65 -349.94,-40.82 -49.81,-14.82 -100.85,-35.44 -143.16,-55.42 -47.39,-22.37 -81.7,-44.44 -124.1,-68.48 -7.87,14.15 -8.03,29.08 -10.21,45.16l-12.21 38.33z"/>
   <path class="fil3 str0" d="M555.75 1355.26c32.58,-19.24 169.07,-205.58 443.25,-192.87l104.31 10.6c-42.82,-174.42 -13.69,-342.67 41.68,-487.78 -203.92,59.01 -416.54,237.53 -508.5,433.54 -34.35,73.21 -64.35,148.54 -80.74,236.51z"/>
   <path class="fil1" d="M2626.22 1775.46c3.86,-5.02 0.74,1.31 4.14,-9.33l9.08 -43.93c9.08,-52.1 14.31,-106.69 15.84,-162.46l0 -70.04c-5.59,-205.3 -59.52,-419.09 -155.9,-578.88 -13.72,-22.75 -11.41,-28.43 -30.08,-44.52 16.82,172.45 -3.59,348 16.49,517.94 8.23,69.64 29.63,153.81 52.36,214.29 16.35,43.5 62.64,150.89 88.07,176.93z"/>
   <path class="fil4" d="M1901.87 545.84c-167.42,42.17 -124.08,360.32 49.99,319.49 67.47,-15.84 112.76,-99.83 101.99,-187.26 -8.92,-72.49 -68.36,-153.29 -151.98,-132.23z"/>
   <path class="fil4" d="M1390.58 868.21c45.78,-4.26 67.11,4.63 99.93,-23.8 67.06,-58.08 79.29,-158.26 38.36,-232.09 -7.02,-12.67 -19.55,-24.11 -23.73,-36.7 -36.81,-18.47 -63.01,-49.55 -124.43,-25.03 -95.37,38.08 -121.4,196.45 -42.11,281.2 16.06,17.17 37.93,21.92 51.98,36.42z"/>
   <path class="fil4" d="M751.84 1363.3c-135.79,39.31 -91.1,290.73 45.12,254.8 131.7,-34.74 88.16,-293.38 -45.12,-254.8z"/>
   <path class="fil4" d="M1094.72 1404.73c-5.78,22.25 -17.99,35.7 -21.37,67.79 -5.43,51.65 13.54,109.14 55.97,135.14 32.24,19.76 44.13,10.7 79.51,11.48 8.54,-10.48 17.8,-13.39 29.41,-24.45 12.23,-11.65 15.09,-17.37 26.61,-31.42 -4.91,-16.92 -45.27,-76.1 -57.03,-97.14 -17.42,-31.15 -32.37,-70.61 -51.26,-103.61 -41.46,12.68 -39.54,22.14 -61.84,42.21z"/>
   <path class="fil2" d="M1208.83 1619.14c20.92,0.04 43.17,40.21 69.44,72.1l194.27 173.68c18.8,13.06 37.84,16.84 38.29,38.49l12.21 -38.33c2.18,-16.08 2.34,-31.01 10.21,-45.16l-37.8 -26.33c-14.37,-10.82 -25.31,-18.22 -38.96,-28.91 -13.95,-10.92 -21.88,-18.77 -33.98,-29.04l-65.72 -65.09c-35.66,-35.64 -46.59,-52.12 -75.03,-89.41l-16.91 -17.87c-11.52,14.05 -14.38,19.77 -26.61,31.42 -11.61,11.06 -20.87,13.97 -29.41,24.45z"/>
   <path class="fil2" d="M1094.72 1404.73c22.3,-20.07 20.38,-29.53 61.84,-42.21 -14.89,-49.6 -51.93,-133.9 -53.25,-189.53l-104.31 -10.6 30.17 9.02c9.27,42.04 16.99,79.29 28.65,120.44 9.91,34.97 32.27,82.85 36.9,112.88z"/>
  </g>
 </g>
</svg>
