<?xml version="1.0" encoding="UTF-8"?>
<!DOCTYPE svg PUBLIC "-//W3C//DTD SVG 1.1//EN" "http://www.w3.org/Graphics/SVG/1.1/DTD/svg11.dtd">
<!-- Creator: CorelDRAW 2020 (64-Bit Versión de evaluación) -->
<svg xmlns="http://www.w3.org/2000/svg" xml:space="preserve" width="3cm" height="3cm" version="1.1" style="shape-rendering:geometricPrecision; text-rendering:geometricPrecision; image-rendering:optimizeQuality; fill-rule:evenodd; clip-rule:evenodd"
viewBox="0 0 3000 3000"
 xmlns:xlink="http://www.w3.org/1999/xlink"
 xmlns:xodm="http://www.corel.com/coreldraw/odm/2003">
 <defs>
  <style type="text/css">
   <![CDATA[
    .fil0 {fill:#3FBF56}
   ]]>
  </style>
 </defs>
 <g id="Capa_x0020_1">
  <metadata id="CorelCorpID_0Corel-Layer"/>
  <g id="_2727515905280">
   <path class="fil0" d="M151.25 1555.01l0 214.59c0,381.72 248.03,827.73 705.1,827.73 367.48,0 643.79,-448.46 643.79,-827.73 0,-721.81 -153.31,-666.53 -418.34,-1175.79 -148.55,-285.46 -363.66,-285.46 -512.21,0 -150.77,289.71 -418.34,554.44 -418.34,961.2z"/>
   <path class="fil0" d="M1316.2 543.34c256.31,382.76 515.24,817.27 398.53,1318.23 344.94,-80.36 597.04,-553.85 672,-922.14 153.63,-754.98 172.91,-732.77 -603.18,-572.53 -202.42,41.79 -301.3,88.58 -467.35,176.44z"/>
   <path class="fil0" d="M1285.54 2689.3c677.08,157.74 986.45,-193.43 1359.74,-387.69 605.89,-315.31 -253.5,-670.4 -317.42,-685.29 -47.64,178.42 -386.02,413.55 -553.65,488.67 -266.87,119.6 -76,131.98 -347.69,449.38 -80.59,94.16 -77.49,48.27 -140.98,134.93z"/>
  </g>
 </g>
</svg>
