<?xml version="1.0" encoding="UTF-8"?>
<!DOCTYPE svg PUBLIC "-//W3C//DTD SVG 1.0//EN" "http://www.w3.org/TR/2001/REC-SVG-20010904/DTD/svg10.dtd">
<!-- Creator: CorelDRAW 2020 (64-Bit Versión de evaluación) -->
<svg xmlns="http://www.w3.org/2000/svg" xml:space="preserve" width="3cm" height="3cm" version="1.0" style="shape-rendering:geometricPrecision; text-rendering:geometricPrecision; image-rendering:optimizeQuality; fill-rule:evenodd; clip-rule:evenodd"
viewBox="0 0 3000 3000"
 xmlns:xlink="http://www.w3.org/1999/xlink"
 xmlns:xodm="http://www.corel.com/coreldraw/odm/2003">
 <defs>
  <style type="text/css">
   <![CDATA[
    .fil0 {fill:#D87848}
   ]]>
  </style>
 </defs>
 <g id="Capa_x0020_1">
  <metadata id="CorelCorpID_0Corel-Layer"/>
  <path id="ground.svg" class="fil0" d="M789 2478.45c-0.7,0 -1.19,-0.68 -0.96,-1.34l657.32 -1857.33c0.14,-0.4 0.53,-0.67 0.95,-0.67l701.7 0c0.43,0 0.82,0.27 0.96,0.68l647.56 1857.32c0.23,0.66 -0.26,1.34 -0.95,1.34l-1986.83 0 -19.75 0zm-566.04 7.27c-0.7,0 -1.19,-0.7 -0.94,-1.36l489.48 -1306.8c0.15,-0.39 0.53,-0.65 0.95,-0.65l425.3 0c0.71,0 1.19,0.69 0.95,1.35l-473.31 1306.8c-0.15,0.39 -0.53,0.66 -0.95,0.66l-441.48 0z"/>
 </g>
</svg>
