<?xml version="1.0" encoding="UTF-8"?>
<!DOCTYPE svg PUBLIC "-//W3C//DTD SVG 1.0//EN" "http://www.w3.org/TR/2001/REC-SVG-20010904/DTD/svg10.dtd">
<!-- Creator: CorelDRAW 2020 (64-Bit Versión de evaluación) -->
<svg xmlns="http://www.w3.org/2000/svg" xml:space="preserve" width="3cm" height="3cm" version="1.0" style="shape-rendering:geometricPrecision; text-rendering:geometricPrecision; image-rendering:optimizeQuality; fill-rule:evenodd; clip-rule:evenodd"
viewBox="0 0 3000 3000"
 xmlns:xlink="http://www.w3.org/1999/xlink"
 xmlns:xodm="http://www.corel.com/coreldraw/odm/2003">
 <defs>
  <style type="text/css">
   <![CDATA[
    .fil2 {fill:#4891D3}
    .fil4 {fill:#56B5EA}
    .fil0 {fill:#57B7EB}
    .fil3 {fill:#58B6EA}
    .fil5 {fill:#58B7EB}
    .fil1 {fill:#A9E0F9}
   ]]>
  </style>
 </defs>
 <g id="Capa_x0020_1">
  <metadata id="CorelCorpID_0Corel-Layer"/>
  <path class="fil0" d="M1059.1 1159.39c5.42,37.64 -18.25,173.77 -10.93,194.7 1.86,5.34 91.72,106.71 102.54,117.82l51.32 58.85c18.32,23.68 32.47,35.83 51.09,59.08l104.1 116.23c23.98,29.13 107.14,469.52 121.13,539.84l37.5 180.36c12.9,-224.07 2.39,-477.74 2.39,-705.04 0,-80.24 11.78,-124.53 -20.88,-155.22 -31.65,-29.72 -59.02,-55.75 -90.7,-85.65 -30.6,-28.88 -61.69,-55.84 -90.56,-85.75 -16.7,-17.29 -25.15,-29.48 -42.33,-45.7 -71.4,-67.39 -64.73,-47.73 -64.09,-106.79 1.44,-133.12 -4.88,-321.5 -0.22,-441.23 1.27,-32.74 13.04,-37.4 28.25,-59.75l107.88 -156.63c47.21,-72.18 34.06,-60.67 101.93,-74.15 95.72,-19.02 194.89,-42.41 291.21,-57.75 0,152.95 0.43,305.97 -0.01,458.91 -0.16,56.14 -4.38,52.73 18.44,97.16l113.41 227.88c14.4,-10.96 26.63,-24.41 38.25,-39.21 11.59,-14.77 22,-23.51 33.61,-37.72 22.82,-27.91 43.86,-51.76 69.41,-79.28 23.93,-25.8 44.28,-54.88 69.04,-80 23.94,-24.3 46.52,-54.02 69.15,-79.93 47.96,-54.91 26.47,-21.08 37.94,-110.21l35.7 -410.76 -1410.56 -0.05c-1.81,37.66 1.2,279 23.96,306.65l153.28 171.37c85.02,109.08 87.94,56.47 80.5,165.47 -2.58,37.85 -6.32,77.92 -11.75,116.5z"/>
  <path class="fil1" d="M1515.85 2426.27c15.68,-15.82 42.87,-94.44 52.19,-115.53 17.44,-39.42 33.25,-79.3 50.16,-120.59 163.72,-399.8 107.71,-220.68 192.52,-644.74 8.64,-43.2 23.32,-98.77 28.31,-143.67l31.54 -165.18 -113.41 -227.88c-22.82,-44.43 -18.6,-41.02 -18.44,-97.16 0.44,-152.94 0.01,-305.96 0.01,-458.91 -96.32,15.34 -195.49,38.73 -291.21,57.75 -67.87,13.48 -54.72,1.97 -101.93,74.15l-107.88 156.63c-15.21,22.35 -26.98,27.01 -28.25,59.75 -4.66,119.73 1.66,308.11 0.22,441.23 -0.64,59.06 -7.31,39.4 64.09,106.79 17.18,16.22 25.63,28.41 42.33,45.7 28.87,29.91 59.96,56.87 90.56,85.75 31.68,29.9 59.05,55.93 90.7,85.65 32.66,30.69 20.88,74.98 20.88,155.22 0,227.3 10.51,480.97 -2.39,705.04z"/>
  <path class="fil1" d="M328.56 399.33l352.37 -0.02 132.18 0.09 1410.56 0.05 143.05 -0.17 120.54 0.15c-22.57,174.83 -57.52,367.22 -84.13,545.03 -4.25,28.44 -7.52,21.18 7.52,26.64l240.42 -298.37 57.02 -273.47 88.13 0 0 -176.26 -2555.79 0 0 176.26 88.13 0.07z"/>
  <path class="fil2" d="M592.04 928.05l-33.78 229.69c-6.58,45.43 -16.41,68.16 1.56,111.89 48.73,118.55 98.22,264.9 145.64,388.66 12.69,33.11 28.4,67.95 36.21,101.49l11.02 0c1.92,-23.1 15.26,-68.21 21.37,-88.79l47.91 -177.92c38.89,-136.93 13.85,-138.96 118.82,-222.7l118.31 -110.98c5.43,-38.58 9.17,-78.65 11.75,-116.5 7.44,-109 4.52,-56.39 -80.5,-165.47l-153.28 -171.37c-22.76,-27.65 -25.77,-268.99 -23.96,-306.65l-132.18 -0.09 -88.89 528.74z"/>
  <path class="fil3" d="M1958.72 1500.9l85.24 217.97c15.73,39.33 28.31,70.78 44.07,110.16 9.95,24.89 39.86,90.44 41.71,112.52l201.47 -426.46c32.43,-78.51 51.24,-86.57 51.99,-179.35l16.13 -215.21c4.06,-51.8 1.5,-103.57 11.32,-149.43 -15.04,-5.46 -11.77,1.8 -7.52,-26.64 26.61,-177.81 61.56,-370.2 84.13,-545.03l-120.54 -0.15c-9.62,114.79 -23.78,230.74 -36.14,345.5 -26.66,247.53 7.71,143.9 -180.9,384.95 -28.19,36.04 -165.3,319.56 -190.96,371.17z"/>
  <path class="fil2" d="M1870.57 1236.56l-31.54 165.18c20.55,16.1 39.54,34.36 59.36,49.58 21.06,16.18 37.26,33.64 60.33,49.58 25.66,-51.61 162.77,-335.13 190.96,-371.17 188.61,-241.05 154.24,-137.42 180.9,-384.95 12.36,-114.76 26.52,-230.71 36.14,-345.5l-143.05 0.17 -35.7 410.76c-11.47,89.13 10.02,55.3 -37.94,110.21 -22.63,25.91 -45.21,55.63 -69.15,79.93 -24.76,25.12 -45.11,54.2 -69.04,80 -25.55,27.52 -46.59,51.37 -69.41,79.28 -11.61,14.21 -22.02,22.95 -33.61,37.72 -11.62,14.8 -23.85,28.25 -38.25,39.21z"/>
  <path class="fil4" d="M592.04 928.05l88.89 -528.74 -352.37 0.02c0,30.8 6.86,60.52 10.71,88.36l24.71 173.59c6.62,47.18 0.92,42.39 29.2,69.95l198.86 196.82z"/>
  <path class="fil4" d="M984.43 2040.7c-10.26,89.54 -84.28,279.92 -82.22,351.38 3.23,111.67 46.8,283.61 39.71,386.71 12.59,-9.41 1.56,1 9.87,-9.5 5.2,-6.54 0.68,0.48 6.95,-10.54 4.33,-7.61 6.46,-13.69 10.63,-22.18l66.07 -132.2c13.98,-27.97 86.65,-162.44 85.06,-182.35l-124.92 -377.82c-8.44,-18.95 -5.93,-21.62 -11.15,-3.5z"/>
  <path class="fil1" d="M2129.13 2685.15c7.11,2.84 -1.23,11.34 8.73,-3.37l72.29 -285.26c15.98,-63.51 20.9,-50.46 -14.31,-96.94 -7.39,-9.76 -13.39,-17.85 -21.25,-28.34 -14.04,-18.71 -26.1,-34.76 -40.14,-53.49l-46.51 -55.87c2.97,67.35 -23.68,215.47 -33.19,290.02 -10.02,78.65 -8.31,61.24 23.54,124.95 13.53,27.03 45.41,82.59 50.84,108.3z"/>
  <path class="fil2" d="M941.92 2778.79c7.09,-103.1 -36.48,-275.04 -39.71,-386.71 -2.06,-71.46 71.96,-261.84 82.22,-351.38 -15.94,11.13 -134.77,196.32 -157.07,228.9 -22,32.16 -14.08,61.52 -14.08,118.11 0,109.89 0.91,93.82 51.45,207.43 14.45,32.46 26.06,59.5 39.83,92.38 12.5,29.85 29.57,62.4 37.36,91.27z"/>
  <path class="fil5" d="M2129.13 2685.15c-5.43,-25.71 -37.31,-81.27 -50.84,-108.3 -31.85,-63.71 -33.56,-46.3 -23.54,-124.95 9.51,-74.55 36.16,-222.67 33.19,-290.02l-128.97 352.52 170.16 170.75z"/>
 </g>
</svg>
