<?xml version="1.0" encoding="UTF-8"?>
<!DOCTYPE svg PUBLIC "-//W3C//DTD SVG 1.0//EN" "http://www.w3.org/TR/2001/REC-SVG-20010904/DTD/svg10.dtd">
<!-- Creator: CorelDRAW 2020 (64-Bit Versión de evaluación) -->
<svg xmlns="http://www.w3.org/2000/svg" xml:space="preserve" width="3cm" height="3cm" version="1.0" style="shape-rendering:geometricPrecision; text-rendering:geometricPrecision; image-rendering:optimizeQuality; fill-rule:evenodd; clip-rule:evenodd"
viewBox="0 0 3000 3000"
 xmlns:xlink="http://www.w3.org/1999/xlink"
 xmlns:xodm="http://www.corel.com/coreldraw/odm/2003">
 <defs>
  <style type="text/css">
   <![CDATA[
    .fil0 {fill:#9098A5}
    .fil1 {fill:white}
   ]]>
  </style>
   <clipPath id="id0">
    <rect x="-55893.52" y="-10280.48" width="50724.76" height="28532.68"/>
   </clipPath>
 </defs>
 <g id="Capa_x0020_1">
  <metadata id="CorelCorpID_0Corel-Layer"/>
  <g style="clip-path:url(#id0)">
   <image id="fraquezas-pokemon-go-2023-lista-com-todas-as-vantagens-e-desvantagens.jpg" x="-55893.52" y="-10280.48" width="50724.75" height="28532.67" xlink:href="normal_Images\normal_ImgID1.png"/>
  </g>
  <circle class="fil0" cx="1492.93" cy="1507.07" r="1354.66"/>
  <path id="normal.svg" class="fil1" d="M2377.17 1507.07c0,488.35 -395.89,884.24 -884.24,884.24 -488.35,0 -884.24,-395.89 -884.24,-884.24 0,-488.35 395.89,-884.24 884.24,-884.24 488.35,0 884.24,395.89 884.24,884.24zm-378.96 0c0,279.06 -226.22,505.28 -505.28,505.28 -279.06,0 -505.28,-226.22 -505.28,-505.28 0,-279.06 226.22,-505.28 505.28,-505.28 279.06,0 505.28,226.22 505.28,505.28z"/>
 </g>
</svg>
