<?xml version="1.0" encoding="UTF-8"?>
<!DOCTYPE svg PUBLIC "-//W3C//DTD SVG 1.0//EN" "http://www.w3.org/TR/2001/REC-SVG-20010904/DTD/svg10.dtd">
<!-- Creator: CorelDRAW 2020 (64-Bit Versión de evaluación) -->
<svg xmlns="http://www.w3.org/2000/svg" xml:space="preserve" width="3cm" height="3cm" version="1.0" style="shape-rendering:geometricPrecision; text-rendering:geometricPrecision; image-rendering:optimizeQuality; fill-rule:evenodd; clip-rule:evenodd"
viewBox="0 0 3000 3000"
 xmlns:xlink="http://www.w3.org/1999/xlink"
 xmlns:xodm="http://www.corel.com/coreldraw/odm/2003">
 <defs>
  <style type="text/css">
   <![CDATA[
    .fil2 {fill:#539E4D}
    .fil1 {fill:#539E4D}
    .fil0 {fill:#64BB5C}
   ]]>
  </style>
 </defs>
 <g id="Capa_x0020_1">
  <metadata id="CorelCorpID_0Corel-Layer"/>
  <g id="_1717440675424">
   <path class="fil0" d="M190.77 480.66c33.45,6.23 156.36,85.15 190.71,105.83l71.43 42.22c33.69,17.87 16.96,13.37 41.06,29.63 139.59,94.17 275.52,187.42 399.98,293.54 8.82,7.53 10.42,10.92 19.65,18.34 8,6.42 14.33,9.13 22.65,15.44l338.43 317.39c25.56,24.66 44.55,54.35 68.99,77.43l140.25 153.77 -15.25 21.96c7.09,14.37 21.09,33.89 31.6,52.43 83.7,147.68 96.4,314.17 93.9,483.78 -1.87,126.79 -12.05,524.31 -25.59,633.23 43.89,-6.5 74.56,-12.01 120.15,0.32 -7.56,-162.8 -10.48,-332.26 -13.44,-495.59 -1.88,-103.67 8.77,-118.62 52.22,-197.04l95.23 -154.64c40.08,7.61 53.39,22 104.56,23.12 137.33,3 279.5,-89.95 380.86,-171.14 43.79,-35.08 121.92,-105.53 157.43,-146.18 19.39,-22.2 41.11,-42.07 59.27,-65.54 10.66,-13.78 19.41,-20.44 30.48,-34.47 81.26,-102.86 163.29,-204.8 213.82,-333.89 19.35,-49.45 40.11,-127.74 13.94,-179.75 -9.86,-19.6 -1.09,-7.31 -9.17,-11.44 -65.16,31.84 -214.65,139.88 -277.07,184.75 -159.96,114.98 -233.39,203.6 -368.91,330.2 -25.59,23.91 -32.52,38.19 -53.67,60.21 -54.05,56.26 -166.93,201.26 -208.49,263.17 -13.7,20.41 -31.84,49.5 -47.57,69.72l-21.54 -4.74c-11.94,8.38 -55.94,68.39 -67.71,85.66l-44.72 69.07c-2.58,4.02 -5.81,8.73 -9.14,12.97 -4.21,5.36 -4.63,5.62 -8.27,9.27 -12.32,-221.11 -48.64,-346.18 -164.04,-516.48 21.78,-42.29 36.3,-42.22 53.33,-116.08 39.16,-169.76 -54.52,-368.74 -150.22,-500.86 -52.5,-72.47 -132.18,-156.49 -202.06,-210.16 -143.86,-110.47 -287.24,-200.02 -486.23,-261.81 -120.97,-37.56 -308.02,-71.37 -434.67,-24.46 -48.66,18.03 -70.15,35.97 -92.18,70.82z"/>
   <path class="fil1" d="M1468.67 1556.21l15.25 -21.96 -140.25 -153.77c-24.44,-23.08 -43.43,-52.77 -68.99,-77.43l-338.43 -317.39c-8.32,-6.31 -14.65,-9.02 -22.65,-15.44 -9.23,-7.42 -10.83,-10.81 -19.65,-18.34 -124.46,-106.12 -260.39,-199.37 -399.98,-293.54 -24.1,-16.26 -7.37,-11.76 -41.06,-29.63l-71.43 -42.22c-34.35,-20.68 -157.26,-99.6 -190.71,-105.83 -132.62,210.56 380.28,707.29 445.41,767.06l82.23 75.02c60.23,58.64 196.96,150.88 273.41,192.86 67,36.79 146.4,72 227.61,86.06 151.06,26.16 181.16,-18.15 249.24,-45.45z"/>
   <path class="fil2" d="M1796.68 1862.72l21.54 4.74c15.73,-20.22 33.87,-49.31 47.57,-69.72 41.56,-61.91 154.44,-206.91 208.49,-263.17 21.15,-22.02 28.08,-36.3 53.67,-60.21 135.52,-126.6 208.95,-215.22 368.91,-330.2 62.42,-44.87 211.91,-152.91 277.07,-184.75 -23.48,-63.44 -120.84,-82.25 -201.64,-79.44 -199.06,6.91 -429.23,135.68 -555.38,255.64 -103.71,98.61 -167.31,166.72 -235.32,307.02 -44.49,91.77 -78.25,231 -38.35,334.93 13.66,35.57 21.71,41.52 39.58,63.27l13.86 21.89z"/>
  </g>
 </g>
</svg>
