<?xml version="1.0" encoding="UTF-8"?>
<!DOCTYPE svg PUBLIC "-//W3C//DTD SVG 1.1//EN" "http://www.w3.org/Graphics/SVG/1.1/DTD/svg11.dtd">
<!-- Creator: CorelDRAW 2020 (64-Bit Versión de evaluación) -->
<svg xmlns="http://www.w3.org/2000/svg" xml:space="preserve" width="3cm" height="3cm" version="1.1" style="shape-rendering:geometricPrecision; text-rendering:geometricPrecision; image-rendering:optimizeQuality; fill-rule:evenodd; clip-rule:evenodd"
viewBox="0 0 3000 3000"
 xmlns:xlink="http://www.w3.org/1999/xlink"
 xmlns:xodm="http://www.corel.com/coreldraw/odm/2003">
 <defs>
  <style type="text/css">
   <![CDATA[
    .fil0 {fill:#C74FF1}
   ]]>
  </style>
 </defs>
 <g id="Capa_x0020_1">
  <metadata id="CorelCorpID_0Corel-Layer"/>
  <path class="fil0" d="M1458.17 381.41c0,155.21 89.01,116.45 189.29,198.41 45.53,37.22 37.26,15.86 59.95,78.52 -86.49,40 -139.19,-11.81 -221.55,-55.39 -84.92,126.81 -159.98,279.63 -240.7,423.94 -87.5,156.43 -161.26,285.69 -249.24,443.09 -88.24,157.87 -159.36,281.93 -248.95,443.37 -113.31,204.17 -376.1,512.54 -136.18,783.18 113.14,127.62 213.73,121.87 348.9,121.87 257.18,0 501.29,-558.76 655.13,-840.3 72.22,-132.16 507.56,-866.75 535.68,-987.44 -398.58,-210.91 -360.95,-181.73 -332.32,-304.63 168.97,89.41 581.56,439.1 581.56,110.77 0,-109.6 -480.01,-341.79 -586.9,-410.05 -5.53,-3.53 -354.67,-258.98 -354.67,-5.34z"/>
 </g>
</svg>
