<?xml version="1.0" encoding="UTF-8"?>
<!DOCTYPE svg PUBLIC "-//W3C//DTD SVG 1.0//EN" "http://www.w3.org/TR/2001/REC-SVG-20010904/DTD/svg10.dtd">
<!-- Creator: CorelDRAW 2020 (64-Bit Versión de evaluación) -->
<svg xmlns="http://www.w3.org/2000/svg" xml:space="preserve" width="3cm" height="3cm" version="1.0" style="shape-rendering:geometricPrecision; text-rendering:geometricPrecision; image-rendering:optimizeQuality; fill-rule:evenodd; clip-rule:evenodd"
viewBox="0 0 3000 3000"
 xmlns:xlink="http://www.w3.org/1999/xlink"
 xmlns:xodm="http://www.corel.com/coreldraw/odm/2003">
 <defs>
  <style type="text/css">
   <![CDATA[
    .fil0 {fill:#FB7077}
   ]]>
  </style>
   <clipPath id="id0">
    <rect x="-55893.52" y="-10280.48" width="50724.76" height="28532.68"/>
   </clipPath>
 </defs>
 <g id="Capa_x0020_1">
  <metadata id="CorelCorpID_0Corel-Layer"/>
  <g style="clip-path:url(#id0)">
   <image id="fraquezas-pokemon-go-2023-lista-com-todas-as-vantagens-e-desvantagens.jpg" x="-55893.52" y="-10280.48" width="50724.75" height="28532.67" xlink:href="psychic_Images\psychic_ImgID1.png"/>
  </g>
  <path id="psychic.svg" class="fil0" d="M2451.29 2326.76c0,0 -310.42,248.96 -928.14,145.94 -468.66,-78.17 -718.61,-594.79 -718.61,-872.48 0,-658.39 487.29,-808.22 816.73,-808.22 329.44,0 544.35,321.19 544.35,569.87 0,248.68 -175.88,466.19 -449.6,466.19 -273.71,0 -354.78,-192.16 -354.78,-368.82 0,-176.67 142.94,-238.91 273.29,-238.91 130.36,0 174.99,111.29 174.99,206.94 0,95.65 -74.21,129.91 -136.11,129.91 -61.9,0 -68.03,-31.23 -91.72,-64.05 -23.69,-32.82 30.22,-157.04 -58.54,-157.04 -88.76,0 -105.3,142.8 -105.3,142.8 0,0 32.36,275.67 298.17,270.92 265.82,-4.76 391.93,-210.26 355.28,-413.72 -36.65,-203.47 -234.11,-419.67 -580.65,-375.98 -346.55,43.69 -488.04,393.84 -425.67,768.03 62.36,374.2 510.65,591.01 863.11,513.01 352.47,-78 703.53,-333.18 703.53,-980.13 0,-646.97 -560.32,-1035.85 -1228.44,-971.76 -668.13,64.09 -1082.87,648.21 -1056.32,1350.04 26.55,701.83 692.5,1084.06 1255.63,1103.76 563.13,19.71 908.36,-306.27 908.36,-306.27 0,0 77.63,-69.24 47.2,-123.3 -30.44,-54.07 -106.76,13.27 -106.76,13.27z"/>
 </g>
</svg>
