<?xml version="1.0" encoding="UTF-8"?>
<!DOCTYPE svg PUBLIC "-//W3C//DTD SVG 1.0//EN" "http://www.w3.org/TR/2001/REC-SVG-20010904/DTD/svg10.dtd">
<!-- Creator: CorelDRAW 2020 (64-Bit Versión de evaluación) -->
<svg xmlns="http://www.w3.org/2000/svg" xml:space="preserve" width="3cm" height="3cm" version="1.0" style="shape-rendering:geometricPrecision; text-rendering:geometricPrecision; image-rendering:optimizeQuality; fill-rule:evenodd; clip-rule:evenodd"
viewBox="0 0 3000 3000"
 xmlns:xlink="http://www.w3.org/1999/xlink"
 xmlns:xodm="http://www.corel.com/coreldraw/odm/2003">
 <defs>
  <style type="text/css">
   <![CDATA[
    .fil0 {fill:#FE6E78}
    .fil1 {fill:white}
   ]]>
  </style>
   <clipPath id="id0">
    <rect x="-55893.52" y="-10280.48" width="50724.76" height="28532.68"/>
   </clipPath>
 </defs>
 <g id="Capa_x0020_1">
  <metadata id="CorelCorpID_0Corel-Layer"/>
  <g style="clip-path:url(#id0)">
   <image id="fraquezas-pokemon-go-2023-lista-com-todas-as-vantagens-e-desvantagens.jpg" x="-55893.52" y="-10280.48" width="50724.75" height="28532.67" xlink:href="psychic1_Images\psychic1_ImgID1.png"/>
  </g>
  <circle class="fil0" cx="1492.93" cy="1507.07" r="1354.66"/>
  <path id="psychic.svg" class="fil1" d="M2117.11 2077.69c0,0 -219.5,176.04 -656.3,103.19 -331.39,-55.27 -508.13,-420.58 -508.13,-616.94 0,-465.55 344.56,-571.49 577.52,-571.49 232.94,0 384.91,227.11 384.91,402.95 0,175.85 -124.37,329.65 -317.91,329.65 -193.55,0 -250.87,-135.87 -250.87,-260.8 0,-124.92 101.07,-168.93 193.24,-168.93 92.18,0 123.74,78.7 123.74,146.33 0,67.64 -52.48,91.86 -96.25,91.86 -43.77,0 -48.1,-22.08 -64.85,-45.29 -16.75,-23.2 21.37,-111.05 -41.4,-111.05 -62.76,0 -74.46,100.99 -74.46,100.99 0,0 22.88,194.92 210.85,191.56 187.96,-3.36 277.13,-148.68 251.22,-292.55 -25.92,-143.87 -165.54,-296.74 -410.59,-265.85 -245.04,30.89 -345.09,278.49 -300.99,543.08 44.1,264.6 361.08,417.91 610.31,362.75 249.24,-55.16 497.47,-235.59 497.47,-693.06 0,-457.47 -396.2,-732.45 -868.64,-687.13 -472.44,45.31 -765.7,458.35 -746.93,954.62 18.77,496.27 489.67,766.55 887.87,780.48 398.19,13.93 642.3,-216.57 642.3,-216.57 0,0 54.9,-48.96 33.38,-87.19 -21.53,-38.23 -75.49,9.39 -75.49,9.39z"/>
 </g>
</svg>
