<?xml version="1.0" encoding="UTF-8"?>
<!DOCTYPE svg PUBLIC "-//W3C//DTD SVG 1.0//EN" "http://www.w3.org/TR/2001/REC-SVG-20010904/DTD/svg10.dtd">
<!-- Creator: CorelDRAW 2020 (64-Bit Versión de evaluación) -->
<svg xmlns="http://www.w3.org/2000/svg" xml:space="preserve" width="3cm" height="3cm" version="1.0" style="shape-rendering:geometricPrecision; text-rendering:geometricPrecision; image-rendering:optimizeQuality; fill-rule:evenodd; clip-rule:evenodd"
viewBox="0 0 3000 3000"
 xmlns:xlink="http://www.w3.org/1999/xlink"
 xmlns:xodm="http://www.corel.com/coreldraw/odm/2003">
 <defs>
  <style type="text/css">
   <![CDATA[
    .fil1 {fill:#666666}
    .fil2 {fill:#9F9F9F}
    .fil0 {fill:#CCCCCC}
   ]]>
  </style>
   <clipPath id="id0">
    <rect x="-55893.52" y="-10280.48" width="50724.76" height="28532.68"/>
   </clipPath>
 </defs>
 <g id="Capa_x0020_1">
  <metadata id="CorelCorpID_0Corel-Layer"/>
  <g style="clip-path:url(#id0)">
   <image id="fraquezas-pokemon-go-2023-lista-com-todas-as-vantagens-e-desvantagens.jpg" x="-55893.52" y="-10280.48" width="50724.75" height="28532.67" xlink:href="rock_Images\rock_ImgID1.png"/>
  </g>
  <path class="fil0" d="M553.07 1961.06c21.8,32.9 41.22,84.55 63.42,111.31 55.86,-17.37 67.84,35.54 100.37,93.27 15.46,27.44 57.84,116.48 74.77,132.15l171.12 -81.08c20.41,-9.88 14.52,-2.73 21.37,-17.85 19.99,-44.16 6.77,-159.78 47.12,-174.13 108.19,-38.47 17.6,232.47 11.05,237.92l-176.68 88.03 790.41 384.81c14.31,-24.67 76.12,-454.35 89.8,-543.67 15.34,-100.15 16.73,-88.64 -7.11,-183.28 -28.53,-113.24 -59.15,-223.21 -88.34,-335.31 -13.35,-51.3 -44.17,-115.49 -22.97,-164.47 14.95,-34.55 126.18,-280.25 123.02,-297.58l-241.89 -396.44c-107.61,-178.23 -217.6,-348.27 -323.16,-524l-265.78 329.14c-10.2,23.73 -9.3,347.75 -7.06,352.5 14.82,31.32 190.29,112.92 209.63,178l90.06 299.75c15.64,52.34 22.79,44.66 60.38,69.61 24.87,16.51 61.7,33.56 46.92,75.87 -27.22,32.27 -53.83,14.91 -79.81,-3.61 -116.15,-82.8 -74.23,-33.01 -140.44,-243.57 -66.57,-211.75 -21.67,-155.23 -141.28,-243.09 -26.93,-19.78 -48.46,-37.35 -75.97,-54.53 -1.09,0.84 -2.73,0.85 -3.17,2.67 -0.44,1.81 -2.5,2.13 -3.09,2.74l-398.35 596.29c-32.47,47.9 -31.9,29.99 52.9,179.92 59.79,105.74 42.58,80.26 22.76,128.63z"/>
  <path class="fil1" d="M1744.46 2697.72l88.64 -565.41 644.91 -4.13c-7.85,12.19 -0.49,2.45 -9.54,11.54l-34.89 28.27c-17.13,13.57 -27.77,20.71 -44.82,34.32 -30.9,24.68 -60.02,47.81 -92.02,71.74 -64.66,48.34 -513.84,403.07 -552.28,423.67zm-30.54 -1102.06c177.67,31.03 355.65,69 533.86,101.04 64.62,11.61 100.82,9.61 117.43,40.96l169.53 311.16 -692.28 4.99c-16.22,-4.54 -11.47,-9.91 -23.12,-52.69l-46.29 -174.02c-15.51,-56.41 -54.51,-179.47 -59.13,-231.44zm-1160.85 365.4c19.82,-48.37 37.03,-22.89 -22.76,-128.63 -84.8,-149.93 -85.37,-132.02 -52.9,-179.92l398.35 -596.29c0.59,-0.61 2.65,-0.93 3.09,-2.74 0.44,-1.82 2.08,-1.83 3.17,-2.67 27.51,17.18 49.04,34.75 75.97,54.53 119.61,87.86 74.71,31.34 141.28,243.09 66.21,210.56 24.29,160.77 140.44,243.57 25.98,18.52 52.59,35.88 79.81,3.61 14.78,-42.31 -22.05,-59.36 -46.92,-75.87 -37.59,-24.95 -44.74,-17.27 -60.38,-69.61l-90.06 -299.75c-19.34,-65.08 -194.81,-146.68 -209.63,-178 -2.24,-4.75 -3.14,-328.77 7.06,-352.5l265.78 -329.14c105.56,175.73 215.55,345.77 323.16,524l241.89 396.44c3.16,17.33 -108.07,263.03 -123.02,297.58 -21.2,48.98 9.62,113.17 22.97,164.47 29.19,112.1 59.81,222.07 88.34,335.31 23.84,94.64 22.45,83.13 7.11,183.28 -13.68,89.32 -75.49,519 -89.8,543.67l-790.41 -384.81 176.68 -88.03c6.55,-5.45 97.14,-276.39 -11.05,-237.92 -40.35,14.35 -27.13,129.97 -47.12,174.13 -6.85,15.12 -0.97,7.97 -21.37,17.85l-171.12 81.08c-16.93,-15.67 -59.31,-104.71 -74.77,-132.15 -32.53,-57.73 -44.51,-110.64 -100.37,-93.27 -40.77,38.03 1.32,78.97 37.58,150.54l77.49 142.84c10.43,17.15 9.69,16.06 25.9,24.95l633.05 304.79c25.37,12.8 48.31,24.17 75.31,37.69 52.44,26.26 100.33,47.29 152.54,73.44 106.05,53.12 72.68,34 268.51,-111.89l188 -145.33c21.9,-17.52 40.84,-31.67 63.12,-49.87l60.34 -47.01c101.25,-77.38 360.36,-285.1 440.73,-338.92 0,-38.73 3.91,-35.45 -12.16,-61.29l-181.74 -332.38c-41.29,-73.67 -32.57,-137.34 -44.29,-249.49 -4.2,-40.2 -7.48,-89.39 -13.66,-133.22 -7.58,-53.67 6.07,-95.43 -50.89,-99.31 -50.39,34.11 -36.89,28.51 -22.79,180.57 6.48,69.84 14.69,143.34 18.78,213.24l-616.3 -114.84c-2.71,-21.17 59.01,-149.37 72.47,-180.36 48.8,-112.31 21.08,-84.6 130.05,-135.75 57.76,-27.11 322.9,-157.11 358.38,-166.69 3.68,45.93 0.34,78.13 51.41,78.92 45.95,-9.82 33.36,-54.6 27.51,-117.28 -1.91,-20.45 -5.46,-48.53 -21.6,-57.8 -24.78,-14.23 -40.44,0.64 -60.52,6.2 -15.83,13.71 -422.71,204.91 -459.5,216.85l-492.21 -798.06 736.07 489.84c41.97,27.72 54.97,53.57 106.42,20.32 19.92,-51.62 -64.23,-88.59 -133.33,-134.59l-333.33 -225.99c-57.43,-38.29 -114.06,-72.85 -169.37,-113.11l-248.66 -169.41c-71.02,-49.22 -94.17,-71.54 -132.3,-20.35 -10.67,14.31 -18.2,21.19 -30.65,37.14l-188.89 234.84c-114.97,144.34 -76.61,70.23 -93.53,183.31 -21.56,144.13 19.97,270.2 -18.23,332.04 -10.15,16.44 -16.12,24.91 -26.84,40.95l-419.69 631.67c-11.75,28.19 10.41,58.2 29.75,90.48l74.74 139.96c25.06,41.2 12.97,61.05 78.91,61.05z"/>
  <path class="fil2" d="M1713.92 1595.66c4.62,51.97 43.62,175.03 59.13,231.44l46.29 174.02c11.65,42.78 6.9,48.15 23.12,52.69l692.28 -4.99 -169.53 -311.16c-16.61,-31.35 -52.81,-29.35 -117.43,-40.96 -178.21,-32.04 -356.19,-70.01 -533.86,-101.04z"/>
  <path class="fil2" d="M2336.32 1237.91c5.89,-25.95 -8,-91.56 -8,-124.91 -51.07,-0.79 -47.73,-32.99 -51.41,-78.92 -35.48,9.58 -300.62,139.58 -358.38,166.69 -108.97,51.15 -81.25,23.44 -130.05,135.75 -13.46,30.99 -75.18,159.19 -72.47,180.36l616.3 114.84c-4.09,-69.9 -12.3,-143.4 -18.78,-213.24 -14.1,-152.06 -27.6,-146.46 22.79,-180.57z"/>
  <path class="fil2" d="M2273.71 944.12l-95.66 -64.3c-12.58,-7.27 -5.62,-3.61 -13.56,-6.75 -51.45,33.25 -64.45,7.4 -106.42,-20.32l-736.07 -489.84 492.21 798.06c36.79,-11.94 443.67,-203.14 459.5,-216.85z"/>
  <path class="fil2" d="M1744.46 2697.72c38.44,-20.6 487.62,-375.33 552.28,-423.67 32,-23.93 61.12,-47.06 92.02,-71.74 17.05,-13.61 27.69,-20.75 44.82,-34.32l34.89 -28.27c9.05,-9.09 1.69,0.65 9.54,-11.54l-644.91 4.13 -88.64 565.41z"/>
 </g>
</svg>
