<?xml version="1.0" encoding="UTF-8"?>
<!DOCTYPE svg PUBLIC "-//W3C//DTD SVG 1.0//EN" "http://www.w3.org/TR/2001/REC-SVG-20010904/DTD/svg10.dtd">
<!-- Creator: CorelDRAW 2020 (64-Bit Versión de evaluación) -->
<svg xmlns="http://www.w3.org/2000/svg" xml:space="preserve" width="3cm" height="3cm" version="1.0" style="shape-rendering:geometricPrecision; text-rendering:geometricPrecision; image-rendering:optimizeQuality; fill-rule:evenodd; clip-rule:evenodd"
viewBox="0 0 3000 3000"
 xmlns:xlink="http://www.w3.org/1999/xlink"
 xmlns:xodm="http://www.corel.com/coreldraw/odm/2003">
 <defs>
  <style type="text/css">
   <![CDATA[
    .fil2 {fill:#5D7991}
    .fil1 {fill:#738CA0}
    .fil0 {fill:#95A9B8}
    .fil3 {fill:#D5E4EE}
   ]]>
  </style>
   <clipPath id="id0">
    <rect x="-55893.52" y="-10280.48" width="50724.76" height="28532.68"/>
   </clipPath>
 </defs>
 <g id="Capa_x0020_1">
  <metadata id="CorelCorpID_0Corel-Layer"/>
  <g style="clip-path:url(#id0)">
   <image id="fraquezas-pokemon-go-2023-lista-com-todas-as-vantagens-e-desvantagens.jpg" x="-55893.52" y="-10280.48" width="50724.75" height="28532.67" xlink:href="steel_Images\steel_ImgID1.png"/>
  </g>
  <path class="fil0" d="M1949.85 1035.09c39.77,24.63 103.53,118.37 130.2,179.2 34.81,79.36 52.85,149.76 56.76,246.15 64.9,-61.79 95.65,-22.11 88.12,71.38 -5.07,62.97 -18.32,123.35 -37.23,178.95 -90.94,267.39 -333.72,455.49 -619.16,479.62 -32.72,2.78 -73.41,7.91 -91.99,-14.32 -26.75,-32.01 2.81,-57.25 18.34,-73.87 -91.52,-3.09 -176.12,-24.73 -249.98,-58.42 -58.79,-26.82 -152.24,-89.92 -175.95,-127.94 -14.94,-6.72 -26.59,-22.32 -39.54,-36.92 -11.67,-13.17 -23.71,-29.84 -33.86,-44.58 -20.96,-30.47 -39.22,-62.87 -56.89,-99.79 -114.79,-239.75 -43.73,-532.48 127.25,-703.07 207.33,-206.86 543.79,-249.12 802.81,-70.32 19.5,13.47 72.73,51.3 81.12,73.93zm-1509.52 1034.05c17.41,51.26 56.83,62.91 106.16,91.03l376.61 216.89c168.05,97.5 337.22,193.85 504.16,290.87 109,63.36 104.99,33.53 266.38,-56.97l755.95 -436.49c147.4,-87.07 135.1,-50.57 135.1,-256.14l0.14 -991.11c-0.51,-78.43 -27.82,-89.02 -81.66,-119.02 -249.8,-139.14 -501.39,-292.24 -752.71,-434.21 -42.56,-24.05 -82.56,-46.72 -124.3,-71.69 -26.68,-15.96 -105.84,-72 -140.74,-45.51 30.1,1.76 55.69,23.22 44.9,57.3 -10.17,32.17 -161.93,107.76 -193.67,126.07l-809.16 467.15c-8.07,96.78 -1.1,801.52 -1.1,960.64 0,89.06 26.75,287.44 -86.06,201.19z"/>
  <path class="fil1" d="M1485.42 256.79c34.9,-26.49 114.06,29.55 140.74,45.51 41.74,24.97 81.74,47.64 124.3,71.69 251.32,141.97 502.91,295.07 752.71,434.21 53.84,30 81.15,40.59 81.66,119.02l-0.14 991.11c0,205.57 12.3,169.07 -135.1,256.14l-755.95 436.49c-161.39,90.5 -157.38,120.33 -266.38,56.97 -166.94,-97.02 -336.11,-193.37 -504.16,-290.87l-376.61 -216.89c-49.33,-28.12 -88.75,-39.77 -106.16,-91.03 -11.46,-79.42 -4.17,-915.24 -4.17,-1068.92 0,-173.84 11.15,-150.33 135.07,-222.69 151.02,-88.16 302.74,-177.46 454.35,-262.21 63.06,-35.25 430.54,-253.89 459.84,-258.53zm-1139.34 637.06l0 1164.44c0,115.33 146.47,178.55 240.73,229.53l819.7 473.5c116.63,70.22 191.37,8.44 279.28,-40.7l149.15 -86c24.39,-14.04 48.84,-28.19 74.08,-43.47 206.42,-124.97 455.46,-260 670.54,-387.53 50,-29.65 95.41,-84.93 95.41,-145.33l0 -1164.44c0,-120.5 -153.16,-177.23 -240.42,-229.84l-820.02 -473.18c-113.57,-67.96 -186.63,-12.69 -282.87,42.72 -24.39,14.05 -48.83,28.2 -74.08,43.48l-224.02 128.66c-190.78,114.4 -406.03,230.42 -595.59,344.92 -49.28,29.77 -91.89,86.01 -91.89,143.24z"/>
  <path class="fil2" d="M1068.96 1915.84c21.38,-25.62 110.92,-103.56 124.15,-126.26 -104.79,-121.08 -153.81,-246.71 -116.96,-411.99 52.87,-237.23 287.64,-388.85 528.25,-336.89 96.3,20.8 148.98,55.7 219.63,118.12 13.52,-7.75 2.78,-0.23 17.05,-12.9 4.34,-3.85 12.72,-12.24 16.95,-16.53l91.82 -94.3c-8.39,-22.63 -61.62,-60.46 -81.12,-73.93 -259.02,-178.8 -595.48,-136.54 -802.81,70.32 -170.98,170.59 -242.04,463.32 -127.25,703.07 17.67,36.92 35.93,69.32 56.89,99.79 10.15,14.74 22.19,31.41 33.86,44.58 12.95,14.6 24.6,30.2 39.54,36.92z"/>
  <path class="fil1" d="M1824.03 1158.82c44.51,52.26 58.25,61.77 91.53,130.54 10.73,22.18 22.56,56.8 29.25,82.73 60.24,233.66 -90.96,480.68 -334.85,539.32 -67.2,16.15 -131.68,16.13 -198.91,0.03 -21.71,-5.2 -61.54,-18.22 -83.47,-28.49 -28.25,-13.22 -46.64,-23.6 -71.28,-40.7 -27.82,-19.32 -40.3,-33.62 -63.19,-52.67 -13.23,22.7 -102.77,100.64 -124.15,126.26 23.71,38.02 117.16,101.12 175.95,127.94 73.86,33.69 158.46,55.33 249.98,58.42 123.05,8.78 273.5,-41.79 370.17,-109.35 166.66,-116.44 285.1,-325.04 271.75,-532.41 -3.91,-96.39 -21.95,-166.79 -56.76,-246.15 -26.67,-60.83 -90.43,-154.57 -130.2,-179.2l-91.82 94.3c-4.23,4.29 -12.61,12.68 -16.95,16.53 -14.27,12.67 -3.53,5.15 -17.05,12.9z"/>
  <path class="fil3" d="M440.33 2069.14c112.81,86.25 86.06,-112.13 86.06,-201.19 0,-159.12 -6.97,-863.86 1.1,-960.64l809.16 -467.15c31.74,-18.31 183.5,-93.9 193.67,-126.07 10.79,-34.08 -14.8,-55.54 -44.9,-57.3 -29.3,4.64 -396.78,223.28 -459.84,258.53 -151.61,84.75 -303.33,174.05 -454.35,262.21 -123.92,72.36 -135.07,48.85 -135.07,222.69 0,153.68 -7.29,989.5 4.17,1068.92z"/>
  <path class="fil3" d="M2136.81 1460.44c13.35,207.37 -105.09,415.97 -271.75,532.41 -96.67,67.56 -247.12,118.13 -370.17,109.35 -15.53,16.62 -45.09,41.86 -18.34,73.87 18.58,22.23 59.27,17.1 91.99,14.32 285.44,-24.13 528.22,-212.23 619.16,-479.62 18.91,-55.6 32.16,-115.98 37.23,-178.95 7.53,-93.49 -23.22,-133.17 -88.12,-71.38z"/>
 </g>
</svg>
