<?xml version="1.0" encoding="UTF-8"?>
<!DOCTYPE svg PUBLIC "-//W3C//DTD SVG 1.0//EN" "http://www.w3.org/TR/2001/REC-SVG-20010904/DTD/svg10.dtd">
<!-- Creator: CorelDRAW 2020 (64-Bit Versión de evaluación) -->
<svg xmlns="http://www.w3.org/2000/svg" xml:space="preserve" width="3cm" height="3cm" version="1.0" style="shape-rendering:geometricPrecision; text-rendering:geometricPrecision; image-rendering:optimizeQuality; fill-rule:evenodd; clip-rule:evenodd"
viewBox="0 0 3000 3000"
 xmlns:xlink="http://www.w3.org/1999/xlink"
 xmlns:xodm="http://www.corel.com/coreldraw/odm/2003">
 <defs>
  <style type="text/css">
   <![CDATA[
    .fil0 {fill:#4F8FD6}
    .fil1 {fill:white}
   ]]>
  </style>
   <clipPath id="id0">
    <rect x="-55564.71" y="-9941.82" width="50724.76" height="28532.68"/>
   </clipPath>
 </defs>
 <g id="Capa_x0020_1">
  <metadata id="CorelCorpID_0Corel-Layer"/>
  <path id="water.svg" class="fil0" d="M2375.13 1988.9c0,477.22 -388.32,864.07 -867.33,864.07 -479.02,0 -867.33,-386.85 -867.33,-864.07 0,-464.12 751.48,-1683.86 796.47,-1753.42 25.92,-39.62 81.82,-38.08 109.11,1.53 44.99,69.56 829.08,1287.77 829.08,1751.89z"/>
  <g style="clip-path:url(#id0)">
   <image id="fraquezas-pokemon-go-2023-lista-com-todas-as-vantagens-e-desvantagens.jpg" x="-55564.71" y="-9941.82" width="50724.75" height="28532.67" xlink:href="water_Images\water_ImgID1.png"/>
  </g>
  <path class="fil1" d="M1101.81 1631.93c-218.59,344.83 -221.2,776.12 172.03,945.14 351.67,151.14 762.63,-114.17 733.64,-475.29 -152.04,164.48 -372.72,187.76 -576.17,132.03 -243.4,-136.27 -314.25,-189.97 -329.5,-601.88z"/>
 </g>
</svg>
